	.include "MPlayDef.s"
	.section .rodata
	.global mus_battle20
	.align 2
	.equ mus_battle20_grp, voicegroup119
	.equ mus_battle20_pri, 1
	.equ mus_battle20_rev, reverb_set+50

mus_battle20_1: @ 86BE9EC
	.byte KEYSH, 0x00
	.byte TEMPO, 0x63
	.byte VOICE, 0x01
	.byte PAN, 0x4F
	.byte VOL, 0x50
	.byte N06
	.byte Cn5
	.byte v076
	.byte W06
	.byte Bn4
	.byte W06
	.byte As4
	.byte W06
	.byte An4
	.byte W06
	.byte As4
	.byte W06
	.byte An4
	.byte W06
	.byte Gs4
	.byte W06
	.byte Gn4
	.byte W06
	.byte Gs4
	.byte W06
	.byte Gn4
	.byte W06
	.byte Fs4
	.byte W06
	.byte Fn4
	.byte W06
	.byte Fs4
	.byte W06
	.byte Fn4
	.byte W06
	.byte En4
	.byte W06
	.byte Ds4
	.byte W06
	.byte En4
	.byte W06
	.byte Ds4
	.byte W06
	.byte Dn4
	.byte W06
	.byte Cs4
	.byte W06
	.byte Dn4
	.byte W06
	.byte Cs4
	.byte W06
	.byte Cn4
	.byte W06
	.byte Bn3
	.byte W06
	.byte Cn4
	.byte W06
	.byte Bn3
	.byte W06
	.byte As3
	.byte W06
	.byte An3
	.byte W06
	.byte As3
	.byte W06
	.byte An3
	.byte W06
	.byte As3
	.byte W06
	.byte Bn3
	.byte W06
	.byte VOICE, 0x11
	.byte N12
	.byte Gn3
	.byte v080
	.byte W36
	.byte As3
	.byte W36
	.byte Gs3
	.byte W24
	.byte Gn3
	.byte W12
	.byte Gs3
	.byte W24
	.byte As3
	.byte W36
	.byte N24
	.byte Cs3
	.byte W24
	.byte N12
	.byte Gn3
	.byte W36
	.byte As3
	.byte W36
	.byte Gs3
	.byte W24
	.byte Gn3
	.byte W12
	.byte Gs3
	.byte W24
	.byte As3
	.byte W36
	.byte N24
	.byte Cs4
	.byte W24
	.byte VOICE, 0x30
	.byte PAN, 0x46
	.byte N12
	.byte Cn4
	.byte W36
	.byte Ds4
	.byte W36
	.byte Cs4
	.byte W24
	.byte Cn4
	.byte W12
	.byte Cs4
	.byte W24
	.byte Ds4
	.byte W36
	.byte N24
	.byte Cs4
	.byte W24
	.byte N12
	.byte Cn4
	.byte v088
	.byte W36
	.byte Ds4
	.byte W36
	.byte Cs4
	.byte W24
	.byte Cn4
	.byte W12
	.byte Cs4
	.byte W24
	.byte Ds4
	.byte W36
	.byte N24
	.byte Gn4
	.byte W24
mus_battle20_1_86BEA80: @ 86BEA80
	.byte VOICE, 0x30
	.byte VOL, 0x50
	.byte N36
	.byte Cn3
	.byte v096
	.byte W36
	.byte Gn3
	.byte W36
	.byte N24
	.byte Fn3
	.byte W24
	.byte N12
	.byte En3
	.byte W12
	.byte Fn3
	.byte W12
	.byte En3
	.byte W12
	.byte Dn3
	.byte W12
	.byte Cn3
	.byte W12
	.byte En3
	.byte W12
	.byte As3
	.byte W12
	.byte Cn4
	.byte W12
	.byte N96
	.byte Cs4
	.byte W96
	.byte N48
	.byte W48
	.byte As3
	.byte W48
	.byte N36
	.byte Cn3
	.byte W36
	.byte Gn3
	.byte W36
	.byte N24
	.byte Fn3
	.byte W24
	.byte N12
	.byte En3
	.byte W12
	.byte Fn3
	.byte W12
	.byte En3
	.byte W12
	.byte Dn3
	.byte W12
	.byte Cn3
	.byte W12
	.byte Dn3
	.byte W12
	.byte As3
	.byte W12
	.byte Cn4
	.byte W12
	.byte N72
	.byte Cs4
	.byte W72
	.byte N12
	.byte W12
	.byte Cn4
	.byte W12
	.byte N48
	.byte Cs4
	.byte W48
	.byte Ds4
	.byte W48
	.byte N36
	.byte Cn4
	.byte W36
	.byte As3
	.byte W36
	.byte N24
	.byte Dn4
	.byte W24
	.byte N92
	.byte Cn4
	.byte W48
	.byte VOL, 0x4B
	.byte W06
	.byte Bn3
	.byte W06
	.byte Fs3
	.byte W06
	.byte Cn3
	.byte W06
	.byte Fn2
	.byte W06
	.byte An1
	.byte W06
	.byte Bn0
	.byte W06
	.byte Cn0
	.byte W06
	.byte Gs4
	.byte N48
	.byte En2
	.byte W48
	.byte N36
	.byte Fn2
	.byte W36
	.byte N12
	.byte An2
	.byte W12
	.byte N36
	.byte As2
	.byte W36
	.byte Dn3
	.byte W36
	.byte N24
	.byte Bn2
	.byte W24
	.byte N36
	.byte Cn3
	.byte W36
	.byte Gn2
	.byte W36
	.byte N24
	.byte Fn2
	.byte W24
	.byte N96
	.byte En2
	.byte W96
	.byte N48
	.byte W48
	.byte Fn2
	.byte W48
	.byte N36
	.byte As2
	.byte W36
	.byte N24
	.byte Fn2
	.byte W24
	.byte N12
	.byte Dn3
	.byte W12
	.byte As2
	.byte W12
	.byte An2
	.byte W12
	.byte N72
	.byte Cn3
	.byte W72
	.byte N24
	.byte W24
	.byte N96
	.byte En3
	.byte W96
	.byte N84
	.byte Cn3
	.byte W84
	.byte N12
	.byte En3
	.byte W12
	.byte N96
	.byte Fn3
	.byte W96
	.byte N72
	.byte W72
	.byte N12
	.byte En3
	.byte W12
	.byte Dn3
	.byte W12
	.byte N84
	.byte En3
	.byte W84
	.byte N12
	.byte Fn3
	.byte W12
	.byte N72
	.byte Gn3
	.byte W72
	.byte N12
	.byte As3
	.byte W12
	.byte An3
	.byte W12
	.byte N96
	.byte As3
	.byte W96
	.byte N72
	.byte Fn3
	.byte W72
	.byte N12
	.byte En3
	.byte W12
	.byte Fn3
	.byte W12
	.byte N96
	.byte Gn3
	.byte W96
	.byte VOICE, 0x30
	.byte N84
	.byte Cn4
	.byte W84
	.byte N12
	.byte En4
	.byte W12
	.byte N96
	.byte Fn4
	.byte W96
	.byte N72
	.byte W72
	.byte N12
	.byte En4
	.byte W12
	.byte Dn4
	.byte W12
	.byte N96
	.byte En4
	.byte W96
	.byte N48
	.byte Cn5
	.byte W48
	.byte Cn3
	.byte W48
	.byte Gn4
	.byte W48
	.byte Cs3
	.byte W48
	.byte Cn4
	.byte W48
	.byte Cn2
	.byte W48
	.byte Gn3
	.byte W48
	.byte Cs2
	.byte W48
	.byte VOICE, 0x2F
	.byte PAN, 0x20
	.byte N12
	.byte Cn2
	.byte v092
	.byte W12
	.byte En2
	.byte W24
	.byte Cn2
	.byte W12
	.byte En2
	.byte W12
	.byte N12
	.byte W12
	.byte Cn2
	.byte W12
	.byte N12
	.byte W12
	.byte En2
	.byte W12
	.byte Cn2
	.byte W12
	.byte N12
	.byte W24
	.byte N12
	.byte W24
	.byte N12
	.byte W12
	.byte N06
	.byte En2
	.byte W06
	.byte Cn2
	.byte W06
	.byte N12
	.byte W48
	.byte N12
	.byte W24
	.byte N12
	.byte W24
	.byte N12
	.byte W24
	.byte En2
	.byte W12
	.byte N12
	.byte W12
	.byte N12
	.byte W24
	.byte N12
	.byte W12
	.byte Cn2
	.byte W12
	.byte N12
	.byte W36
	.byte N12
	.byte W12
	.byte N12
	.byte W12
	.byte En2
	.byte W12
	.byte Cn2
	.byte W12
	.byte En2
	.byte W12
	.byte Cn2
	.byte W24
	.byte N12
	.byte W24
	.byte N12
	.byte W12
	.byte En2
	.byte W12
	.byte N12
	.byte W12
	.byte N12
	.byte W12
	.byte Cn2
	.byte W24
	.byte N12
	.byte W24
	.byte N12
	.byte W12
	.byte En2
	.byte W12
	.byte N12
	.byte W12
	.byte Cn2
	.byte W12
	.byte N12
	.byte W24
	.byte N12
	.byte W24
	.byte N12
	.byte W12
	.byte En2
	.byte W24
	.byte Cn2
	.byte W12
	.byte N12
	.byte W24
	.byte N12
	.byte W24
	.byte N12
	.byte W24
	.byte N12
	.byte W24
	.byte N12
	.byte W12
	.byte N12
	.byte W12
	.byte N12
	.byte W24
	.byte N12
	.byte W12
	.byte N12
	.byte W24
	.byte VOICE, 0x30
	.byte PAN, 0x46
	.byte N12
	.byte As3
	.byte v096
	.byte W12
	.byte TIE
	.byte Cn4
	.byte W96
	.byte W96
	.byte EOT
	.byte TIE
	.byte Cn3
	.byte v076
	.byte W96
	.byte W48
	.byte VOL, 0x4B
	.byte W06
	.byte Bn3
	.byte W06
	.byte Fs3
	.byte W06
	.byte Cn3
	.byte W06
	.byte Fn2
	.byte W06
	.byte An1
	.byte W06
	.byte Bn0
	.byte W06
	.byte Cn0
	.byte W03
	.byte EOT
	.byte W03
	.byte VOICE, 0x3C
	.byte VOL, 0x50
	.byte PAN, 0x50
	.byte N96
	.byte Fn2
	.byte v096
	.byte W96
	.byte As2
	.byte W96
	.byte Gn2
	.byte W96
mus_battle20_1_86BEC16: @ 86BEC16
	.byte N92
	.byte En2
	.byte v096
	.byte W48
	.byte VOL, 0x4B
	.byte W06
	.byte Bn3
	.byte W06
	.byte Fs3
	.byte W06
	.byte Cn3
	.byte W06
	.byte Fn2
	.byte W06
	.byte An1
	.byte W06
	.byte Bn0
	.byte W06
	.byte Cn0
	.byte W06
	.byte PEND
	.byte Gs4
	.byte N96
	.byte Fn2
	.byte W96
	.byte As2
	.byte W96
	.byte Gn2
	.byte W96
	.byte PATT
	.word mus_battle20_1_86BEC16
	.byte VOICE, 0x11
	.byte VOL, 0x50
	.byte PAN, 0x4F
	.byte N12
	.byte Gn3
	.byte v088
	.byte W36
	.byte Gs3
	.byte W36
	.byte Gn2
	.byte W24
	.byte En3
	.byte W36
	.byte Fn3
	.byte W36
	.byte N24
	.byte As2
	.byte W24
	.byte N12
	.byte Gn3
	.byte W36
	.byte Gs3
	.byte W36
	.byte Gn2
	.byte W24
	.byte En3
	.byte W36
	.byte Fn3
	.byte W36
	.byte N24
	.byte Gs3
	.byte W24
	.byte VOICE, 0x30
	.byte PAN, 0x46
	.byte N48
	.byte Cn4
	.byte v096
	.byte W48
	.byte Cn3
	.byte W48
	.byte Gn3
	.byte W48
	.byte Cs3
	.byte W48
	.byte Cn4
	.byte W48
	.byte Cn3
	.byte W48
	.byte Cs4
	.byte W48
	.byte Cs3
	.byte W48
	.byte GOTO
	.word mus_battle20_1_86BEA80
	.byte FINE

mus_battle20_2: @ 86BEC78
	.byte KEYSH, 0x00
	.byte VOICE, 0x30
	.byte LFOS, 0x14
	.byte PAN, 0x32
	.byte VOL, 0x50
	.byte N06
	.byte Gn5
	.byte v064
	.byte W06
	.byte Fs5
	.byte W06
	.byte N12
	.byte Gn5
	.byte W12
	.byte N06
	.byte W06
	.byte Fs5
	.byte W06
	.byte N12
	.byte Gn5
	.byte W12
	.byte N06
	.byte W06
	.byte Fs5
	.byte W06
	.byte N12
	.byte Gn5
	.byte W12
	.byte N06
	.byte W06
	.byte Fs5
	.byte W06
	.byte N12
	.byte Gn5
	.byte W12
	.byte N06
	.byte W06
	.byte Fs5
	.byte W06
	.byte N12
	.byte Gn5
	.byte W12
	.byte N06
	.byte W06
	.byte Fs5
	.byte W06
	.byte N12
	.byte Gn5
	.byte W12
	.byte N06
	.byte W06
	.byte Fs5
	.byte W06
	.byte N12
	.byte Gn5
	.byte W12
	.byte N06
	.byte W06
	.byte Fs5
	.byte W06
	.byte N12
	.byte Gn5
	.byte W12
	.byte VOICE, 0x11
	.byte N12
	.byte Cn4
	.byte v088
	.byte W36
	.byte Ds4
	.byte W36
	.byte Cs4
	.byte W24
	.byte Cn4
	.byte W12
	.byte Cs4
	.byte W24
	.byte Ds4
	.byte W36
	.byte N24
	.byte Gs3
	.byte W24
	.byte N12
	.byte Cn4
	.byte W36
	.byte Ds4
	.byte W36
	.byte Cs4
	.byte W24
	.byte Cn4
	.byte W12
	.byte Cs4
	.byte W24
	.byte Ds4
	.byte W36
	.byte N24
	.byte Gs4
	.byte W24
	.byte PAN, 0x40
	.byte N12
	.byte Cn5
	.byte W36
	.byte Ds5
	.byte W36
	.byte Cs5
	.byte W24
	.byte Cn5
	.byte W12
	.byte Cs5
	.byte W24
	.byte Ds5
	.byte W36
	.byte N24
	.byte Cs5
	.byte W24
	.byte N12
	.byte Cn5
	.byte W36
	.byte Ds5
	.byte W36
	.byte Cs5
	.byte W24
	.byte Cn5
	.byte W12
	.byte Cs5
	.byte W24
	.byte Ds5
	.byte W36
	.byte N24
	.byte Gn5
	.byte v076
	.byte W24
mus_battle20_2_86BED02: @ 86BED02
	.byte VOICE, 0x3C
	.byte VOL, 0x50
	.byte PAN, 0x40
	.byte N48
	.byte Cn4
	.byte v100
	.byte W48
	.byte As3
	.byte W48
	.byte N36
	.byte Dn4
	.byte W36
	.byte N24
	.byte Gn3
	.byte W24
	.byte N12
	.byte W12
	.byte Dn4
	.byte W12
	.byte Gn4
	.byte W12
	.byte N72
	.byte Gs4
	.byte W72
	.byte N12
	.byte W12
	.byte Gn4
	.byte W12
	.byte N48
	.byte Fn4
	.byte W48
	.byte Cs4
	.byte W48
	.byte VOICE, 0x38
	.byte N48
	.byte Cn4
	.byte v104
	.byte W24
	.byte MOD, 0x07
	.byte W24
	.byte CnM2
	.byte N42
	.byte As3
	.byte W21
	.byte MOD, 0x06
	.byte W21
	.byte CnM2
	.byte N06
	.byte Cn4
	.byte W06
	.byte N36
	.byte Dn4
	.byte W36
	.byte N24
	.byte Gn3
	.byte W12
	.byte MOD, 0x07
	.byte W12
	.byte N12
	.byte W12
	.byte MOD, 0x00
	.byte N12
	.byte Dn4
	.byte W12
	.byte Gn4
	.byte W12
	.byte N72
	.byte Gs4
	.byte W32
	.byte W01
	.byte MOD, 0x07
	.byte W36
	.byte W03
	.byte CnM2
	.byte N12
	.byte W12
	.byte Gn4
	.byte W12
	.byte N36
	.byte As4
	.byte W36
	.byte N24
	.byte Gs4
	.byte W24
	.byte N12
	.byte Gn4
	.byte W12
	.byte Fn4
	.byte W12
	.byte Gs4
	.byte W12
	.byte N60
	.byte Gn4
	.byte W30
	.byte MOD, 0x07
	.byte W30
	.byte CnM2
	.byte N12
	.byte Fn4
	.byte W12
	.byte Gn4
	.byte W12
	.byte Fn4
	.byte W12
	.byte N92
	.byte En4
	.byte W36
	.byte MOD, 0x07
	.byte W12
	.byte VOL, 0x4B
	.byte W06
	.byte Bn3
	.byte W06
	.byte Fs3
	.byte W06
	.byte Cn3
	.byte W06
	.byte Fn2
	.byte W06
	.byte An1
	.byte W06
	.byte Bn0
	.byte W06
	.byte Cn0
	.byte W03
	.byte MOD, 0x00
	.byte W03
	.byte VOICE, 0x30
	.byte VOL, 0x50
	.byte PAN, 0x40
	.byte N48
	.byte As2
	.byte W48
	.byte Dn3
	.byte W48
	.byte N36
	.byte Fn3
	.byte W36
	.byte N24
	.byte As3
	.byte W24
	.byte N12
	.byte An3
	.byte W12
	.byte Gn3
	.byte W12
	.byte Fn3
	.byte W12
	.byte N72
	.byte En3
	.byte W72
	.byte N24
	.byte Cn3
	.byte W24
	.byte N96
	.byte Gn3
	.byte W96
	.byte N48
	.byte As2
	.byte W48
	.byte Dn3
	.byte W48
	.byte N36
	.byte Fn3
	.byte W36
	.byte N24
	.byte As3
	.byte W24
	.byte N12
	.byte Fn3
	.byte W12
	.byte As3
	.byte W12
	.byte Dn4
	.byte W12
	.byte N72
	.byte En4
	.byte W72
	.byte N24
	.byte Gn4
	.byte W24
	.byte N92
	.byte Cn5
	.byte W54
	.byte VOL, 0x49
	.byte W09
	.byte Fs3
	.byte W06
	.byte Bn2
	.byte W09
	.byte Dn2
	.byte W06
	.byte En1
	.byte W06
	.byte Dn0
	.byte W06
	.byte VOICE, 0x11
	.byte VOL, 0x50
	.byte PAN, 0x40
	.byte N36
	.byte Cn4
	.byte v100
	.byte W36
	.byte Gn3
	.byte W36
	.byte N12
	.byte Cn4
	.byte W12
	.byte En4
	.byte W12
	.byte N36
	.byte Fn4
	.byte W36
	.byte N24
	.byte As3
	.byte W24
	.byte N36
	.byte Dn4
	.byte W36
mus_battle20_2_86BEDF1: @ 86BEDF1
	.byte N36
	.byte Fn4
	.byte v100
	.byte W36
	.byte N24
	.byte As4
	.byte W24
	.byte N12
	.byte An4
	.byte W12
	.byte Gn4
	.byte W12
	.byte Fn4
	.byte W12
	.byte PEND
	.byte N48
	.byte En4
	.byte W48
	.byte Cn4
	.byte W48
	.byte N36
	.byte W36
	.byte Gn4
	.byte W36
	.byte N12
	.byte Fn4
	.byte W12
	.byte En4
	.byte W12
	.byte N36
	.byte Dn4
	.byte W36
	.byte N60
	.byte As4
	.byte W60
	.byte PATT
	.word mus_battle20_2_86BEDF1
	.byte N36
	.byte En4
	.byte v100
	.byte W36
	.byte N60
	.byte Cn4
	.byte W60
	.byte VOICE, 0x01
	.byte N36
	.byte Cn5
	.byte v104
	.byte W36
	.byte Gn4
	.byte W36
	.byte N12
	.byte Cn5
	.byte W12
	.byte En5
	.byte W12
	.byte N36
	.byte Fn5
	.byte W36
	.byte N24
	.byte As4
	.byte W24
	.byte N36
	.byte Dn5
	.byte W36
	.byte Fn5
	.byte W36
	.byte N24
	.byte As5
	.byte W24
	.byte N12
	.byte An5
	.byte W12
	.byte Gn5
	.byte W12
	.byte Fn5
	.byte W12
	.byte N36
	.byte En5
	.byte W36
	.byte Cn5
	.byte W36
	.byte N24
	.byte Gn5
	.byte W24
	.byte N36
	.byte Cn6
	.byte W36
	.byte Cs6
	.byte W36
	.byte N24
	.byte Cn4
	.byte v108
	.byte W24
	.byte N36
	.byte Gn5
	.byte v104
	.byte W36
	.byte Gs5
	.byte W36
	.byte N24
	.byte Cs4
	.byte v108
	.byte W24
	.byte N36
	.byte Cn5
	.byte v104
	.byte W36
	.byte Cs5
	.byte W36
	.byte N24
	.byte Cn3
	.byte v108
	.byte W24
	.byte N36
	.byte Gn4
	.byte v104
	.byte W36
	.byte Gs4
	.byte W36
	.byte N24
	.byte Cs3
	.byte v108
	.byte W24
	.byte VOICE, 0x3C
	.byte PAN, 0x40
	.byte N96
	.byte Cn3
	.byte v104
	.byte W96
mus_battle20_2_86BEE79: @ 86BEE79
	.byte N84
	.byte Cn2
	.byte v104
	.byte W84
	.byte N12
	.byte Cn3
	.byte W12
	.byte PEND
	.byte N96
	.byte Cs3
	.byte W96
	.byte N84
	.byte Cs2
	.byte W84
	.byte N12
	.byte Cs3
	.byte W12
	.byte N96
	.byte Cn3
	.byte W96
	.byte PATT
	.word mus_battle20_2_86BEE79
	.byte N96
	.byte As2
	.byte v104
	.byte W96
	.byte Dn3
	.byte W96
	.byte Fn3
	.byte W96
	.byte N84
	.byte As3
	.byte W84
	.byte VOICE, 0x30
	.byte PAN, 0x40
	.byte N12
	.byte Dn4
	.byte W12
	.byte TIE
	.byte En4
	.byte W96
	.byte W96
	.byte EOT
	.byte TIE
	.byte En3
	.byte v096
	.byte W96
	.byte W48
	.byte VOL, 0x4B
	.byte W06
	.byte Bn3
	.byte W06
	.byte Fs3
	.byte W06
	.byte Cn3
	.byte W06
	.byte Fn2
	.byte W06
	.byte An1
	.byte W06
	.byte Bn0
	.byte W06
	.byte Cn0
	.byte W03
	.byte EOT
	.byte W03
	.byte VOICE, 0x3C
	.byte VOL, 0x50
	.byte PAN, 0x40
	.byte N24
	.byte Cn3
	.byte v100
	.byte W24
	.byte N36
	.byte Fn3
	.byte W36
	.byte Gn3
	.byte W36
	.byte N48
	.byte As3
	.byte W48
	.byte An3
	.byte W48
	.byte N36
	.byte Gn3
	.byte W36
	.byte N12
	.byte Fn3
	.byte W12
	.byte En3
	.byte W12
	.byte Dn3
	.byte W12
	.byte En3
	.byte W12
	.byte Fn3
	.byte W12
	.byte N92
	.byte Gn3
	.byte W48
	.byte VOL, 0x4B
	.byte W06
	.byte Bn3
	.byte W06
	.byte Fs3
	.byte W06
	.byte Cn3
	.byte W06
	.byte Fn2
	.byte W06
	.byte An1
	.byte W06
	.byte Bn0
	.byte W06
	.byte Cn0
	.byte W06
	.byte VOICE, 0x38
	.byte VOL, 0x50
	.byte N24
	.byte Cn3
	.byte v104
	.byte W24
	.byte N36
	.byte Fn3
	.byte W15
	.byte MOD, 0x06
	.byte W21
	.byte CnM2
	.byte N36
	.byte Gn3
	.byte W36
	.byte N48
	.byte Cn4
	.byte W24
	.byte MOD, 0x07
	.byte W24
	.byte CnM2
	.byte N48
	.byte Dn4
	.byte W24
	.byte MOD, 0x07
	.byte W24
	.byte CnM2
	.byte N36
	.byte En4
	.byte W21
	.byte MOD, 0x07
	.byte W15
	.byte CnM2
	.byte N12
	.byte Dn4
	.byte W12
	.byte Cn4
	.byte W12
	.byte As3
	.byte W12
	.byte An3
	.byte W12
	.byte Gn3
	.byte W12
	.byte N92
	.byte Cn4
	.byte W32
	.byte W01
	.byte MOD, 0x07
	.byte W15
	.byte VOL, 0x4B
	.byte W06
	.byte Bn3
	.byte W06
	.byte Fs3
	.byte W06
	.byte Cn3
	.byte W06
	.byte Fn2
	.byte W06
	.byte An1
	.byte W06
	.byte Bn0
	.byte W06
	.byte Cn0
	.byte W03
	.byte MOD, 0x00
	.byte W03
	.byte VOICE, 0x11
	.byte VOL, 0x50
	.byte PAN, 0x32
	.byte N12
	.byte Cn4
	.byte v096
	.byte W36
	.byte Cs4
	.byte W36
	.byte Cn3
	.byte W24
	.byte Gn3
	.byte W36
	.byte Gs3
	.byte W36
	.byte N24
	.byte Cs3
	.byte W24
	.byte N12
	.byte Cn4
	.byte W36
	.byte Cs4
	.byte W36
	.byte Cn3
	.byte W24
	.byte Gn3
	.byte W36
	.byte Gs3
	.byte W36
	.byte N24
	.byte Cs4
	.byte W24
	.byte VOICE, 0x11
	.byte PAN, 0x40
	.byte N12
	.byte Cn5
	.byte v092
	.byte W36
	.byte Cs5
	.byte W36
	.byte Cn4
	.byte W24
	.byte Gn4
	.byte W36
	.byte Gs4
	.byte W36
	.byte N24
	.byte Cs4
	.byte W24
	.byte N12
	.byte Cn5
	.byte W36
	.byte Cs5
	.byte W36
	.byte N24
	.byte Gn4
	.byte W24
	.byte N12
	.byte Cn5
	.byte W36
	.byte Cs5
	.byte W36
	.byte N24
	.byte As4
	.byte W24
	.byte GOTO
	.word mus_battle20_2_86BED02
	.byte FINE

mus_battle20_3: @ 86BEF90
	.byte KEYSH, 0x00
	.byte VOICE, 0x21
	.byte VOL, 0x50
	.byte PAN, 0x3A
	.byte N96
	.byte Cn1
	.byte v108
	.byte W96
	.byte N60
	.byte Cs1
	.byte W60
	.byte N12
	.byte W12
	.byte Ds1
	.byte W12
	.byte Cs1
	.byte W12
mus_battle20_3_86BEFA5: @ 86BEFA5
	.byte N12
	.byte Cn1
	.byte v108
	.byte W12
	.byte Fs1
	.byte W12
	.byte Fn1
	.byte W12
	.byte Ds1
	.byte W12
	.byte Fn1
	.byte W12
	.byte Ds1
	.byte W12
	.byte N12
	.byte W12
	.byte Fn1
	.byte W12
	.byte PEND
mus_battle20_3_86BEFB8: @ 86BEFB8
	.byte N12
	.byte Cn1
	.byte v108
	.byte W12
	.byte Fs1
	.byte W12
	.byte Fn1
	.byte W12
	.byte Ds1
	.byte W12
	.byte Fn1
	.byte W12
	.byte Ds1
	.byte W12
	.byte N12
	.byte W12
	.byte Cs1
	.byte W12
	.byte PEND
	.byte PATT
	.word mus_battle20_3_86BEFA5
	.byte PATT
	.word mus_battle20_3_86BEFB8
	.byte PATT
	.word mus_battle20_3_86BEFA5
	.byte PATT
	.word mus_battle20_3_86BEFB8
	.byte PATT
	.word mus_battle20_3_86BEFA5
	.byte PATT
	.word mus_battle20_3_86BEFB8
mus_battle20_3_86BEFE9: @ 86BEFE9
	.byte N12
	.byte Cn1
	.byte v108
	.byte W12
	.byte Gn1
	.byte W12
	.byte Cn1
	.byte W12
	.byte Gn1
	.byte W12
	.byte Cn1
	.byte W12
	.byte Gn1
	.byte W12
	.byte Cn1
	.byte W12
	.byte Gn1
	.byte W12
	.byte PEND
	.byte Cn1
	.byte W12
	.byte Gn1
	.byte W12
	.byte Cn1
	.byte W12
	.byte Gn1
	.byte W12
	.byte Cn1
	.byte W12
	.byte Cn2
	.byte W12
	.byte Gn1
	.byte W12
	.byte En1
	.byte W12
mus_battle20_3_86BF00C: @ 86BF00C
	.byte N12
	.byte Cs1
	.byte v108
	.byte W12
	.byte Gs1
	.byte W12
	.byte Cs1
	.byte W12
	.byte Gs1
	.byte W12
	.byte Cs1
	.byte W12
	.byte Gs1
	.byte W12
	.byte Cs1
	.byte W12
	.byte Gs1
	.byte W12
	.byte PEND
	.byte Cs1
	.byte W12
	.byte Gs1
	.byte W12
	.byte Cs1
	.byte W12
	.byte Gs1
	.byte W12
	.byte Cs1
	.byte W12
	.byte N12
	.byte W12
	.byte Gs1
	.byte W12
	.byte Fn1
	.byte W12
	.byte PATT
	.word mus_battle20_3_86BEFE9
	.byte N12
	.byte Cn1
	.byte v108
	.byte W12
	.byte Gn1
	.byte W12
	.byte Cn2
	.byte W12
	.byte Gn1
	.byte W12
	.byte En1
	.byte W12
	.byte Gn1
	.byte W12
	.byte En1
	.byte W12
	.byte Gn1
	.byte W12
	.byte PATT
	.word mus_battle20_3_86BF00C
	.byte PATT
	.word mus_battle20_3_86BF00C
	.byte PATT
	.word mus_battle20_3_86BEFE9
	.byte PATT
	.word mus_battle20_3_86BEFE9
mus_battle20_3_86BF05A: @ 86BF05A
	.byte N12
	.byte As0
	.byte v108
	.byte W12
	.byte Fn1
	.byte W12
	.byte As0
	.byte W12
	.byte Fn1
	.byte W12
	.byte As0
	.byte W12
	.byte Fn1
	.byte W12
	.byte As0
	.byte W12
	.byte Fn1
	.byte W12
	.byte PEND
	.byte PATT
	.word mus_battle20_3_86BF05A
	.byte PATT
	.word mus_battle20_3_86BEFE9
	.byte PATT
	.word mus_battle20_3_86BEFE9
	.byte PATT
	.word mus_battle20_3_86BF05A
	.byte PATT
	.word mus_battle20_3_86BF05A
	.byte PATT
	.word mus_battle20_3_86BEFE9
	.byte PATT
	.word mus_battle20_3_86BEFE9
mus_battle20_3_86BF090: @ 86BF090
	.byte N12
	.byte Cn1
	.byte v108
	.byte W12
	.byte En1
	.byte W12
	.byte Cn1
	.byte W12
	.byte En1
	.byte W12
	.byte Cn1
	.byte W12
	.byte En1
	.byte W12
	.byte Cn1
	.byte W12
	.byte En1
	.byte W12
	.byte PEND
mus_battle20_3_86BF0A3: @ 86BF0A3
	.byte N12
	.byte Cn1
	.byte v108
	.byte W12
	.byte Fn1
	.byte W12
	.byte Cn1
	.byte W12
	.byte Fn1
	.byte W12
	.byte Cn1
	.byte W12
	.byte Fn1
	.byte W12
	.byte Cn1
	.byte W12
	.byte Fn1
	.byte W12
	.byte PEND
	.byte PATT
	.word mus_battle20_3_86BF0A3
	.byte PATT
	.word mus_battle20_3_86BEFE9
	.byte PATT
	.word mus_battle20_3_86BEFE9
	.byte N12
	.byte Cn1
	.byte v108
	.byte W12
	.byte As1
	.byte W12
	.byte Cn1
	.byte W12
	.byte As1
	.byte W12
	.byte Cn1
	.byte W12
	.byte As1
	.byte W12
	.byte Cn1
	.byte W12
	.byte As1
	.byte W12
	.byte PATT
	.word mus_battle20_3_86BF0A3
	.byte PATT
	.word mus_battle20_3_86BF090
	.byte PATT
	.word mus_battle20_3_86BF090
	.byte PATT
	.word mus_battle20_3_86BF0A3
	.byte PATT
	.word mus_battle20_3_86BF0A3
	.byte PATT
	.word mus_battle20_3_86BF090
	.byte PATT
	.word mus_battle20_3_86BEFE9
	.byte PATT
	.word mus_battle20_3_86BEFE9
	.byte PATT
	.word mus_battle20_3_86BEFE9
	.byte PATT
	.word mus_battle20_3_86BEFE9
	.byte PATT
	.word mus_battle20_3_86BEFE9
	.byte PATT
	.word mus_battle20_3_86BEFE9
	.byte PATT
	.word mus_battle20_3_86BF00C
	.byte PATT
	.word mus_battle20_3_86BF00C
	.byte PATT
	.word mus_battle20_3_86BEFE9
	.byte PATT
	.word mus_battle20_3_86BEFE9
	.byte PATT
	.word mus_battle20_3_86BF05A
	.byte PATT
	.word mus_battle20_3_86BF05A
	.byte PATT
	.word mus_battle20_3_86BF05A
	.byte PATT
	.word mus_battle20_3_86BF05A
mus_battle20_3_86BF13B: @ 86BF13B
	.byte N12
	.byte Cn1
	.byte v108
	.byte W12
	.byte Cn2
	.byte W12
	.byte Cn1
	.byte W12
	.byte Cn2
	.byte W12
	.byte Cn1
	.byte W12
	.byte Cn2
	.byte W12
	.byte Cn1
	.byte W12
	.byte Cn2
	.byte W12
	.byte PEND
	.byte PATT
	.word mus_battle20_3_86BF13B
	.byte PATT
	.word mus_battle20_3_86BEFE9
	.byte N12
	.byte Cn1
	.byte v108
	.byte W12
	.byte Gn1
	.byte W12
	.byte Cn2
	.byte W12
	.byte Gn1
	.byte W12
	.byte Cn2
	.byte W12
	.byte Gn1
	.byte W12
	.byte Fn1
	.byte W12
	.byte Gn1
	.byte W12
mus_battle20_3_86BF16A: @ 86BF16A
	.byte N12
	.byte Fn1
	.byte v108
	.byte W12
	.byte As1
	.byte W12
	.byte Fn1
	.byte W12
	.byte As1
	.byte W12
	.byte Fn1
	.byte W12
	.byte As1
	.byte W12
	.byte Fn1
	.byte W12
	.byte As1
	.byte W12
	.byte PEND
	.byte PATT
	.word mus_battle20_3_86BF16A
	.byte PATT
	.word mus_battle20_3_86BEFE9
	.byte PATT
	.word mus_battle20_3_86BEFE9
	.byte PATT
	.word mus_battle20_3_86BF16A
	.byte PATT
	.word mus_battle20_3_86BF16A
	.byte PATT
	.word mus_battle20_3_86BEFE9
	.byte PATT
	.word mus_battle20_3_86BEFE9
	.byte PATT
	.word mus_battle20_3_86BEFA5
	.byte PATT
	.word mus_battle20_3_86BEFB8
	.byte PATT
	.word mus_battle20_3_86BEFA5
	.byte PATT
	.word mus_battle20_3_86BEFB8
	.byte PATT
	.word mus_battle20_3_86BEFA5
	.byte PATT
	.word mus_battle20_3_86BEFB8
	.byte PATT
	.word mus_battle20_3_86BEFA5
	.byte N12
	.byte Cn1
	.byte v108
	.byte W12
	.byte Fs1
	.byte W12
	.byte Fn1
	.byte W12
	.byte Ds1
	.byte W12
	.byte Gn1
	.byte W12
	.byte Cs1
	.byte W12
	.byte Ds1
	.byte W12
	.byte Cs1
	.byte W12
	.byte GOTO
	.word mus_battle20_3_86BEFE9
	.byte FINE

mus_battle20_4: @ 86BF1DB
	.byte KEYSH, 0x00
	.byte VOICE, 0x50
	.byte LFOS, 0x14
	.byte VOL, 0x50
	.byte XCMD, 0x08
	.byte AsM2
	.byte v009
	.byte GsM2
	.byte W96
	.byte W96
	.byte W96
	.byte W96
	.byte W96
	.byte W72
	.byte VOICE, 0x04
	.byte PAN, 0x40
	.byte N24
	.byte Gs3
	.byte v052
	.byte W24
mus_battle20_4_86BF1F6: @ 86BF1F6
	.byte N12
	.byte Gn3
	.byte v052
	.byte W12
	.byte Cn3
	.byte W12
	.byte Fn3
	.byte W12
	.byte As3
	.byte W12
	.byte Gn3
	.byte W12
	.byte Cs3
	.byte W12
	.byte Gs3
	.byte W12
	.byte Cn3
	.byte W12
	.byte PEND
	.byte Gn3
	.byte W12
	.byte Cs3
	.byte W12
	.byte Fn3
	.byte W12
	.byte As3
	.byte W12
	.byte Cn3
	.byte W12
	.byte Gn3
	.byte W12
	.byte Cs3
	.byte W12
	.byte Fn3
	.byte W12
	.byte PATT
	.word mus_battle20_4_86BF1F6
	.byte N12
	.byte Gn3
	.byte v052
	.byte W12
	.byte Cs3
	.byte W12
	.byte Fn3
	.byte W12
	.byte As3
	.byte W12
	.byte Fn3
	.byte W12
	.byte Cn4
	.byte W12
	.byte N24
	.byte Cs4
	.byte W24
mus_battle20_4_86BF22F: @ 86BF22F
	.byte W96
	.byte W96
	.byte W96
	.byte W96
	.byte W96
	.byte W96
	.byte W96
	.byte W96
	.byte W96
	.byte W96
	.byte W96
	.byte W96
	.byte W96
	.byte W96
	.byte W96
	.byte W96
	.byte W96
	.byte W96
	.byte W96
	.byte W96
	.byte W96
	.byte W60
	.byte VOICE, 0x52
	.byte PAN, 0x70
	.byte N03
	.byte Gn1
	.byte v060
	.byte W12
	.byte N03
	.byte W12
	.byte N03
	.byte W12
mus_battle20_4_86BF251: @ 86BF251
	.byte N03
	.byte Gn1
	.byte v060
	.byte W12
	.byte N03
	.byte W12
	.byte N03
	.byte W12
	.byte N21
	.byte W24
	.byte N03
	.byte W12
	.byte N03
	.byte W12
	.byte N03
	.byte W12
	.byte PEND
mus_battle20_4_86BF262: @ 86BF262
	.byte N03
	.byte Fn1
	.byte v060
	.byte W12
	.byte N03
	.byte W12
	.byte N03
	.byte W12
	.byte N21
	.byte W24
	.byte N03
	.byte W12
	.byte N03
	.byte W12
	.byte N03
	.byte W12
	.byte PEND
mus_battle20_4_86BF273: @ 86BF273
	.byte N03
	.byte As1
	.byte v060
	.byte W12
	.byte N03
	.byte W12
	.byte N03
	.byte W12
	.byte N21
	.byte W24
	.byte N03
	.byte W12
	.byte N03
	.byte W12
	.byte N03
	.byte W12
	.byte PEND
	.byte PATT
	.word mus_battle20_4_86BF251
	.byte PATT
	.word mus_battle20_4_86BF251
	.byte PATT
	.word mus_battle20_4_86BF262
	.byte PATT
	.word mus_battle20_4_86BF273
	.byte PATT
	.word mus_battle20_4_86BF251
	.byte W96
	.byte W96
	.byte W96
	.byte W96
	.byte W96
	.byte W96
	.byte W96
	.byte W96
	.byte W96
	.byte W96
	.byte VOICE, 0x50
	.byte N96
	.byte Fn2
	.byte v060
	.byte W96
	.byte As2
	.byte W96
	.byte Dn3
	.byte W96
	.byte N84
	.byte Fn3
	.byte W84
	.byte N12
	.byte W12
	.byte TIE
	.byte Gn3
	.byte W96
	.byte W96
	.byte EOT
	.byte W96
	.byte W96
	.byte VOICE, 0x04
	.byte PAN, 0x10
	.byte N12
	.byte Fn4
	.byte v040
	.byte W12
	.byte Cn4
	.byte W12
	.byte Fn4
	.byte W12
	.byte An4
	.byte W12
	.byte Cn5
	.byte W12
	.byte An4
	.byte W12
	.byte Fn4
	.byte W12
	.byte Cn4
	.byte W12
mus_battle20_4_86BF2D3: @ 86BF2D3
	.byte N12
	.byte Fn4
	.byte v040
	.byte W12
	.byte Cn4
	.byte W12
	.byte Fn4
	.byte W12
	.byte An4
	.byte W12
	.byte Cn5
	.byte W12
	.byte An4
	.byte W12
	.byte Fn4
	.byte W12
	.byte Cn4
	.byte W12
	.byte PEND
mus_battle20_4_86BF2E6: @ 86BF2E6
	.byte N12
	.byte En4
	.byte v040
	.byte W12
	.byte Cn4
	.byte W12
	.byte En4
	.byte W12
	.byte Gn4
	.byte W12
	.byte Cn5
	.byte W12
	.byte Gn4
	.byte W12
	.byte En4
	.byte W12
	.byte Cn4
	.byte W12
	.byte PEND
	.byte PATT
	.word mus_battle20_4_86BF2E6
	.byte PATT
	.word mus_battle20_4_86BF2D3
	.byte N12
	.byte Fn4
	.byte v032
	.byte W12
	.byte Cn4
	.byte W12
	.byte Fn4
	.byte W12
	.byte An4
	.byte W12
	.byte Cn5
	.byte W12
	.byte An4
	.byte W12
	.byte Fn4
	.byte W12
	.byte Cn4
	.byte W12
	.byte En4
	.byte W12
	.byte Cn4
	.byte W12
	.byte En4
	.byte W12
	.byte Gn4
	.byte W12
	.byte Cn5
	.byte W12
	.byte Gn4
	.byte W12
	.byte En4
	.byte W12
	.byte Cn4
	.byte W12
	.byte En4
	.byte v020
	.byte W12
	.byte Cn4
	.byte W12
	.byte En4
	.byte W12
	.byte Gn4
	.byte W12
	.byte Cn5
	.byte W12
	.byte Gn4
	.byte W12
	.byte En4
	.byte W12
	.byte Cn4
	.byte W12
	.byte VOICE, 0x06
	.byte PAN, 0x40
	.byte N48
	.byte Cn3
	.byte v052
	.byte W24
	.byte MOD, 0x05
	.byte W24
	.byte CnM2
	.byte N48
	.byte Cn2
	.byte W24
	.byte MOD, 0x05
	.byte W24
	.byte CnM2
	.byte N48
	.byte Gn2
	.byte W24
	.byte MOD, 0x05
	.byte W24
	.byte CnM2
	.byte N48
	.byte Cs2
	.byte W24
	.byte MOD, 0x05
	.byte W24
	.byte CnM2
	.byte N48
	.byte Cn3
	.byte W24
	.byte MOD, 0x05
	.byte W24
	.byte CnM2
	.byte N48
	.byte Cn2
	.byte W24
	.byte MOD, 0x05
	.byte W24
	.byte CnM2
	.byte N48
	.byte Gn2
	.byte W24
	.byte MOD, 0x05
	.byte W24
	.byte CnM2
	.byte N48
	.byte Cs3
	.byte W24
	.byte MOD, 0x05
	.byte W24
	.byte VOICE, 0x06
	.byte PAN, 0x40
	.byte MOD, 0x00
	.byte N12
	.byte Gn4
	.byte W36
	.byte Gs4
	.byte W36
	.byte Gn3
	.byte W24
	.byte En4
	.byte W36
	.byte Fn4
	.byte W36
	.byte N24
	.byte Gn3
	.byte W24
	.byte N12
	.byte Gn4
	.byte W36
	.byte Gs4
	.byte W36
	.byte N24
	.byte Cn4
	.byte W24
	.byte N12
	.byte Gn4
	.byte W36
	.byte Gs4
	.byte W36
	.byte N24
	.byte Fn4
	.byte W24
	.byte GOTO
	.word mus_battle20_4_86BF22F
	.byte FINE

mus_battle20_5: @ 86BF39C
	.byte KEYSH, 0x00
	.byte VOICE, 0x04
	.byte LFOS, 0x14
	.byte PAN, 0x40
	.byte XCMD, 0x08
	.byte AsM2
	.byte v009
	.byte GsM2
	.byte VOL, 0x50
	.byte N06
	.byte Gn3
	.byte v060
	.byte W12
	.byte Cn3
	.byte W06
	.byte Cn4
	.byte W06
	.byte PAN, 0x10
	.byte N06
	.byte Gn3
	.byte W12
	.byte Cn3
	.byte W06
	.byte Cn4
	.byte W06
	.byte PAN, 0x70
	.byte N06
	.byte Gn3
	.byte W12
	.byte Cn3
	.byte W06
	.byte Cn4
	.byte W06
	.byte PAN, 0x41
	.byte N06
	.byte Gn3
	.byte W12
	.byte Cn3
	.byte W06
	.byte Cn4
	.byte W06
	.byte PAN, 0x10
	.byte N06
	.byte Fn3
	.byte W12
	.byte As2
	.byte W06
	.byte As3
	.byte W06
	.byte PAN, 0x72
	.byte N06
	.byte Fn3
	.byte W12
	.byte As2
	.byte W06
	.byte As3
	.byte W06
	.byte PAN, 0x41
	.byte N06
	.byte Fn3
	.byte W12
	.byte As2
	.byte W06
	.byte As3
	.byte W06
	.byte PAN, 0x10
	.byte N06
	.byte Fn3
	.byte W12
	.byte PAN, 0x70
	.byte N06
	.byte As2
	.byte W06
	.byte Fs4
	.byte W06
	.byte W96
	.byte W96
	.byte W96
	.byte W96
	.byte VOICE, 0x05
	.byte PAN, 0x40
	.byte N12
	.byte Gn4
	.byte v052
	.byte W36
	.byte As4
	.byte W36
	.byte Gs4
	.byte W24
	.byte Gn4
	.byte W12
	.byte Gs4
	.byte W24
	.byte As4
	.byte W36
	.byte N24
	.byte Gs4
	.byte W24
	.byte N12
	.byte Gn4
	.byte W36
	.byte As4
	.byte W36
	.byte Gs4
	.byte W24
	.byte Gn4
	.byte W12
	.byte Gs4
	.byte W24
	.byte As4
	.byte W36
	.byte N24
	.byte Cs5
	.byte W24
mus_battle20_5_86BF41E: @ 86BF41E
	.byte W96
	.byte W96
	.byte W96
	.byte W96
	.byte W96
	.byte W96
	.byte W96
	.byte W96
	.byte W96
	.byte W96
	.byte W96
	.byte W96
	.byte W96
	.byte VOICE, 0x06
	.byte PAN, 0x40
	.byte N96
	.byte Cn3
	.byte v060
	.byte W48
	.byte MOD, 0x06
	.byte W48
	.byte CnM2
	.byte N48
	.byte Gn2
	.byte W24
	.byte MOD, 0x06
	.byte W24
	.byte CnM2
	.byte N48
	.byte As2
	.byte W24
	.byte MOD, 0x06
	.byte W24
	.byte CnM2
	.byte N36
	.byte Dn3
	.byte W36
	.byte N24
	.byte Fn3
	.byte W24
	.byte N12
	.byte As2
	.byte W12
	.byte Dn3
	.byte W12
	.byte Fn3
	.byte W12
	.byte N72
	.byte Gn3
	.byte W36
	.byte MOD, 0x06
	.byte W36
	.byte CnM2
	.byte N24
	.byte En4
	.byte W24
	.byte N92
	.byte Gn4
	.byte W36
	.byte W03
	.byte MOD, 0x06
	.byte W15
	.byte VOL, 0x49
	.byte W09
	.byte Fs3
	.byte W06
	.byte Bn2
	.byte W09
	.byte Dn2
	.byte W06
	.byte En1
	.byte W06
	.byte Dn0
	.byte W03
	.byte MOD, 0x00
	.byte W03
	.byte VOL, 0x50
	.byte W96
	.byte W96
	.byte W96
	.byte W60
	.byte VOICE, 0x53
	.byte PAN, 0x40
	.byte N03
	.byte Gn2
	.byte v072
	.byte W12
	.byte N03
	.byte W12
	.byte N03
	.byte W12
mus_battle20_5_86BF485: @ 86BF485
	.byte N03
	.byte Gn2
	.byte v072
	.byte W12
	.byte N03
	.byte W12
	.byte N03
	.byte W12
	.byte N21
	.byte W24
	.byte N03
	.byte W12
	.byte N03
	.byte W12
	.byte N03
	.byte W12
	.byte PEND
mus_battle20_5_86BF496: @ 86BF496
	.byte N03
	.byte Fn2
	.byte v072
	.byte W12
	.byte N03
	.byte W12
	.byte N03
	.byte W12
	.byte N21
	.byte W24
	.byte N03
	.byte W12
	.byte N03
	.byte W12
	.byte N03
	.byte W12
	.byte PEND
mus_battle20_5_86BF4A7: @ 86BF4A7
	.byte N03
	.byte As2
	.byte v072
	.byte W12
	.byte N03
	.byte W12
	.byte N03
	.byte W12
	.byte N21
	.byte W24
	.byte N03
	.byte W12
	.byte N03
	.byte W12
	.byte N03
	.byte W12
	.byte PEND
	.byte PATT
	.word mus_battle20_5_86BF485
	.byte PATT
	.word mus_battle20_5_86BF485
	.byte PATT
	.word mus_battle20_5_86BF496
	.byte PATT
	.word mus_battle20_5_86BF4A7
	.byte PATT
	.word mus_battle20_5_86BF485
	.byte VOICE, 0x04
	.byte N36
	.byte Cn4
	.byte v072
	.byte W36
	.byte Cs4
	.byte W36
	.byte N24
	.byte Cn2
	.byte W24
	.byte N36
	.byte Gn3
	.byte W36
	.byte Gs3
	.byte W36
	.byte N24
	.byte Cs2
	.byte W24
	.byte N36
	.byte Cn3
	.byte W36
	.byte Cs3
	.byte W36
	.byte N24
	.byte Cn1
	.byte W24
	.byte N36
	.byte Gn2
	.byte W36
	.byte Gs2
	.byte W36
	.byte N24
	.byte Cs1
	.byte W24
	.byte W96
	.byte W96
	.byte W96
	.byte W96
	.byte W96
	.byte W96
	.byte VOICE, 0x52
	.byte PAN, 0x0F
	.byte N12
	.byte As1
	.byte v060
	.byte W12
	.byte VOICE, 0x55
	.byte N11
	.byte W12
	.byte N11
	.byte W12
	.byte N11
	.byte W12
	.byte N11
	.byte W12
	.byte N11
	.byte W12
	.byte N11
	.byte W12
	.byte N11
	.byte W12
	.byte VOICE, 0x52
	.byte N12
	.byte Dn2
	.byte W12
	.byte VOICE, 0x55
	.byte N11
	.byte W12
	.byte N11
	.byte W12
	.byte N11
	.byte W12
	.byte N11
	.byte W12
	.byte N11
	.byte W12
	.byte N11
	.byte W12
	.byte N11
	.byte W12
	.byte VOICE, 0x52
	.byte N12
	.byte Fn2
	.byte W12
	.byte VOICE, 0x55
	.byte N11
	.byte W12
	.byte N11
	.byte W12
	.byte N11
	.byte W12
	.byte N11
	.byte W12
	.byte N11
	.byte W12
	.byte N11
	.byte W12
	.byte N11
	.byte W12
	.byte VOICE, 0x52
	.byte N12
	.byte As2
	.byte W12
	.byte VOICE, 0x55
	.byte N11
	.byte W12
	.byte N11
	.byte W12
	.byte N11
	.byte W12
	.byte N11
	.byte W12
	.byte N11
	.byte W12
	.byte N11
	.byte W12
	.byte VOICE, 0x52
	.byte N12
	.byte Dn3
	.byte W12
	.byte Cn3
	.byte W12
	.byte VOICE, 0x55
	.byte N12
	.byte W12
	.byte N12
	.byte W12
	.byte N12
	.byte W12
	.byte N12
	.byte W12
	.byte N12
	.byte W12
	.byte N12
	.byte W12
	.byte N12
	.byte W12
	.byte N12
	.byte W12
	.byte N12
	.byte W12
	.byte N12
	.byte W12
	.byte N12
	.byte W12
	.byte N12
	.byte W12
	.byte N12
	.byte W12
	.byte N12
	.byte W12
	.byte N12
	.byte W12
	.byte VOICE, 0x52
	.byte PAN, 0x40
	.byte N12
	.byte En2
	.byte W12
	.byte VOICE, 0x55
	.byte N12
	.byte W12
	.byte N12
	.byte W12
	.byte N12
	.byte W12
	.byte N12
	.byte W12
	.byte N12
	.byte W12
	.byte N12
	.byte W12
	.byte N12
	.byte W12
	.byte N12
	.byte W12
	.byte N12
	.byte W12
	.byte N12
	.byte W12
	.byte N12
	.byte W12
	.byte VOL, 0x4B
	.byte N12
	.byte W06
	.byte VOL, 0x47
	.byte W06
	.byte Fs3
	.byte N12
	.byte W06
	.byte VOL, 0x3C
	.byte W06
	.byte Fn2
	.byte N12
	.byte W06
	.byte VOL, 0x2D
	.byte W06
	.byte Bn0
	.byte N09
	.byte W06
	.byte VOL, 0x18
	.byte W06
	.byte VOICE, 0x05
	.byte VOL, 0x50
	.byte BEND, 0x3D
	.byte W06
	.byte N12
	.byte Fn4
	.byte v032
	.byte W12
	.byte Cn4
	.byte W12
	.byte Fn4
	.byte W12
	.byte An4
	.byte W12
	.byte Cn5
	.byte W12
	.byte An4
	.byte W12
	.byte Fn4
	.byte W12
	.byte Cn4
	.byte W06
mus_battle20_5_86BF5C7: @ 86BF5C7
	.byte W06
	.byte N12
	.byte Fn4
	.byte v032
	.byte W12
	.byte Cn4
	.byte W12
	.byte Fn4
	.byte W12
	.byte An4
	.byte W12
	.byte Cn5
	.byte W12
	.byte An4
	.byte W12
	.byte Fn4
	.byte W12
	.byte Cn4
	.byte W06
	.byte PEND
mus_battle20_5_86BF5DB: @ 86BF5DB
	.byte W06
	.byte N12
	.byte En4
	.byte v032
	.byte W12
	.byte Cn4
	.byte W12
	.byte En4
	.byte W12
	.byte Gn4
	.byte W12
	.byte Cn5
	.byte W12
	.byte Gn4
	.byte W12
	.byte En4
	.byte W12
	.byte Cn4
	.byte W06
	.byte PEND
	.byte PATT
	.word mus_battle20_5_86BF5DB
	.byte PATT
	.word mus_battle20_5_86BF5C7
	.byte W06
	.byte N12
	.byte Fn4
	.byte v020
	.byte W12
	.byte Cn4
	.byte W12
	.byte Fn4
	.byte W12
	.byte An4
	.byte W12
	.byte Cn5
	.byte W12
	.byte An4
	.byte W12
	.byte Fn4
	.byte W12
	.byte Cn4
	.byte W06
	.byte W06
	.byte En4
	.byte W12
	.byte Cn4
	.byte W12
	.byte En4
	.byte W12
	.byte Gn4
	.byte W12
	.byte Cn5
	.byte W12
	.byte Gn4
	.byte W12
	.byte En4
	.byte W12
	.byte Cn4
	.byte W06
	.byte W06
	.byte En4
	.byte v012
	.byte W12
	.byte Cn4
	.byte W12
	.byte En4
	.byte W12
	.byte Gn4
	.byte W12
	.byte Cn5
	.byte W12
	.byte Gn4
	.byte W12
	.byte En4
	.byte W12
	.byte Cn4
	.byte W06
	.byte BEND, 0x40
	.byte W96
	.byte W96
	.byte W96
	.byte W96
	.byte VOICE, 0x07
	.byte PAN, 0x10
	.byte N12
	.byte Gn3
	.byte v052
	.byte W36
	.byte Gs3
	.byte W36
	.byte Gn3
	.byte W24
	.byte En3
	.byte W36
	.byte Fn3
	.byte W36
	.byte Gn3
	.byte W24
	.byte N12
	.byte W36
	.byte Gs3
	.byte W36
	.byte N24
	.byte Gn3
	.byte W24
	.byte N12
	.byte W36
	.byte Gs3
	.byte W36
	.byte N24
	.byte As3
	.byte W24
	.byte GOTO
	.word mus_battle20_5_86BF41E
	.byte FINE

mus_battle20_6: @ 86BF65B
	.byte KEYSH, 0x00
	.byte VOICE, 0x51
	.byte VOL, 0x50
	.byte W24
	.byte N06
	.byte Cn2
	.byte v080
	.byte W06
	.byte Cs2
	.byte W06
	.byte Dn2
	.byte W06
	.byte Ds2
	.byte W06
	.byte En2
	.byte W06
	.byte Fn2
	.byte W06
	.byte Fs2
	.byte W06
	.byte Gn2
	.byte W06
	.byte Cn2
	.byte W06
	.byte Cs2
	.byte W06
	.byte Dn2
	.byte W06
	.byte Ds2
	.byte W06
	.byte En2
	.byte W06
	.byte Fn2
	.byte W06
	.byte Fs2
	.byte W06
	.byte Gn2
	.byte W06
	.byte Cn2
	.byte W06
	.byte Cs2
	.byte W06
	.byte Dn2
	.byte W06
	.byte Ds2
	.byte W06
	.byte En2
	.byte W06
	.byte Fn2
	.byte W06
	.byte Fs2
	.byte W06
	.byte Gn2
	.byte W30
	.byte W96
	.byte W96
	.byte W96
	.byte W96
	.byte W96
	.byte W96
	.byte W96
	.byte W96
mus_battle20_6_86BF69C: @ 86BF69C
	.byte W96
	.byte W96
	.byte W96
	.byte W96
	.byte W96
	.byte W96
	.byte W96
	.byte W96
	.byte W96
	.byte W96
	.byte W96
	.byte W96
	.byte W96
	.byte W96
	.byte W96
	.byte W96
	.byte W96
	.byte W96
	.byte W96
	.byte W96
	.byte W96
	.byte W96
	.byte W96
	.byte W96
	.byte W96
	.byte W96
	.byte W96
	.byte W96
	.byte W96
	.byte W96
	.byte W96
	.byte W96
	.byte W96
	.byte W96
	.byte W96
	.byte W96
	.byte W96
	.byte W96
	.byte W96
	.byte W96
	.byte VOICE, 0x5A
	.byte N96
	.byte Fn1
	.byte v080
	.byte W96
	.byte As1
	.byte W96
	.byte Dn2
	.byte W96
	.byte N84
	.byte Fn2
	.byte W96
	.byte W96
	.byte W96
	.byte W96
	.byte W96
	.byte W96
	.byte W96
	.byte W96
	.byte W96
	.byte W96
	.byte W96
	.byte W96
	.byte W96
	.byte W96
	.byte W96
	.byte W96
	.byte W96
	.byte W96
	.byte W96
	.byte W96
	.byte W96
	.byte GOTO
	.word mus_battle20_6_86BF69C
	.byte FINE

mus_battle20_7: @ 86BF6EB
	.byte KEYSH, 0x00
	.byte VOICE, 0x00
	.byte PAN, 0x40
	.byte VOL, 0x50
	.byte W96
	.byte W84
	.byte N12
	.byte Dn1
	.byte v112
	.byte W12
mus_battle20_7_86BF6F9: @ 86BF6F9
	.byte W24
	.byte N12
	.byte Dn1
	.byte v112
	.byte W48
	.byte N12
	.byte W24
	.byte PEND
	.byte PATT
	.word mus_battle20_7_86BF6F9
	.byte PATT
	.word mus_battle20_7_86BF6F9
	.byte PATT
	.word mus_battle20_7_86BF6F9
	.byte PATT
	.word mus_battle20_7_86BF6F9
	.byte PATT
	.word mus_battle20_7_86BF6F9
	.byte PATT
	.word mus_battle20_7_86BF6F9
	.byte PATT
	.word mus_battle20_7_86BF6F9
mus_battle20_7_86BF724: @ 86BF724
	.byte PATT
	.word mus_battle20_7_86BF6F9
	.byte PATT
	.word mus_battle20_7_86BF6F9
	.byte W24
	.byte N12
	.byte Dn1
	.byte v112
	.byte W72
	.byte W24
	.byte N12
	.byte W72
	.byte PATT
	.word mus_battle20_7_86BF6F9
	.byte PATT
	.word mus_battle20_7_86BF6F9
	.byte W24
	.byte N12
	.byte Dn1
	.byte v112
	.byte W72
	.byte W24
	.byte N12
	.byte W72
	.byte PATT
	.word mus_battle20_7_86BF6F9
mus_battle20_7_86BF74D: @ 86BF74D
	.byte W24
	.byte N12
	.byte Dn1
	.byte v112
	.byte W48
	.byte N12
	.byte W12
	.byte N12
	.byte W12
	.byte PEND
	.byte PATT
	.word mus_battle20_7_86BF6F9
	.byte PATT
	.word mus_battle20_7_86BF6F9
	.byte PATT
	.word mus_battle20_7_86BF6F9
	.byte PATT
	.word mus_battle20_7_86BF6F9
	.byte PATT
	.word mus_battle20_7_86BF6F9
	.byte PATT
	.word mus_battle20_7_86BF6F9
	.byte PATT
	.word mus_battle20_7_86BF6F9
	.byte PATT
	.word mus_battle20_7_86BF6F9
	.byte PATT
	.word mus_battle20_7_86BF6F9
	.byte PATT
	.word mus_battle20_7_86BF6F9
	.byte PATT
	.word mus_battle20_7_86BF6F9
	.byte PATT
	.word mus_battle20_7_86BF6F9
	.byte PATT
	.word mus_battle20_7_86BF6F9
	.byte PATT
	.word mus_battle20_7_86BF6F9
	.byte PATT
	.word mus_battle20_7_86BF6F9
	.byte PATT
	.word mus_battle20_7_86BF74D
	.byte PATT
	.word mus_battle20_7_86BF6F9
	.byte PATT
	.word mus_battle20_7_86BF6F9
	.byte PATT
	.word mus_battle20_7_86BF6F9
mus_battle20_7_86BF7B6: @ 86BF7B6
	.byte W24
	.byte N12
	.byte Dn1
	.byte v112
	.byte W12
	.byte N12
	.byte W36
	.byte N12
	.byte W12
	.byte N12
	.byte W12
	.byte PEND
	.byte PATT
	.word mus_battle20_7_86BF6F9
	.byte PATT
	.word mus_battle20_7_86BF6F9
	.byte PATT
	.word mus_battle20_7_86BF6F9
	.byte PATT
	.word mus_battle20_7_86BF74D
	.byte W96
	.byte W96
	.byte W96
	.byte W96
	.byte W96
	.byte W96
	.byte W96
	.byte W96
	.byte W96
	.byte W72
	.byte N12
	.byte Dn1
	.byte v112
	.byte W12
	.byte N12
	.byte W12
	.byte PATT
	.word mus_battle20_7_86BF6F9
	.byte PATT
	.word mus_battle20_7_86BF6F9
	.byte PATT
	.word mus_battle20_7_86BF6F9
	.byte W24
	.byte N48
	.byte An2
	.byte v100
	.byte W48
	.byte N12
	.byte Dn1
	.byte v112
	.byte W12
	.byte N12
	.byte W12
	.byte PATT
	.word mus_battle20_7_86BF6F9
	.byte PATT
	.word mus_battle20_7_86BF6F9
	.byte PATT
	.word mus_battle20_7_86BF6F9
	.byte PATT
	.word mus_battle20_7_86BF6F9
	.byte PATT
	.word mus_battle20_7_86BF6F9
	.byte PATT
	.word mus_battle20_7_86BF6F9
	.byte PATT
	.word mus_battle20_7_86BF6F9
	.byte PATT
	.word mus_battle20_7_86BF74D
	.byte PATT
	.word mus_battle20_7_86BF6F9
	.byte PATT
	.word mus_battle20_7_86BF6F9
	.byte PATT
	.word mus_battle20_7_86BF6F9
	.byte PATT
	.word mus_battle20_7_86BF6F9
	.byte PATT
	.word mus_battle20_7_86BF6F9
	.byte PATT
	.word mus_battle20_7_86BF6F9
	.byte PATT
	.word mus_battle20_7_86BF6F9
	.byte PATT
	.word mus_battle20_7_86BF7B6
	.byte GOTO
	.word mus_battle20_7_86BF724
	.byte FINE

mus_battle20_8: @ 86BF856
	.byte KEYSH, 0x00
	.byte VOICE, 0x2F
	.byte PAN, 0x40
	.byte VOL, 0x50
	.byte N12
	.byte Cn2
	.byte v112
	.byte W36
	.byte N12
	.byte W36
	.byte N12
	.byte W24
	.byte W12
	.byte N12
	.byte W36
	.byte PAN, 0x20
	.byte N12
	.byte An1
	.byte W24
	.byte PAN, 0x60
	.byte N12
	.byte W24
mus_battle20_8_86BF872: @ 86BF872
	.byte PAN, 0x40
	.byte N12
	.byte Cn2
	.byte v112
	.byte W36
	.byte N12
	.byte W60
	.byte PEND
mus_battle20_8_86BF87B: @ 86BF87B
	.byte N12
	.byte Cn2
	.byte v112
	.byte W36
	.byte N12
	.byte W60
	.byte PEND
	.byte PATT
	.word mus_battle20_8_86BF87B
mus_battle20_8_86BF887: @ 86BF887
	.byte N12
	.byte Cn2
	.byte v112
	.byte W36
	.byte N12
	.byte W48
	.byte An1
	.byte W12
	.byte PEND
	.byte PATT
	.word mus_battle20_8_86BF87B
	.byte PATT
	.word mus_battle20_8_86BF887
	.byte PATT
	.word mus_battle20_8_86BF87B
	.byte PATT
	.word mus_battle20_8_86BF887
mus_battle20_8_86BF8A4: @ 86BF8A4
	.byte PATT
	.word mus_battle20_8_86BF87B
	.byte PATT
	.word mus_battle20_8_86BF887
mus_battle20_8_86BF8AE: @ 86BF8AE
	.byte N12
	.byte Cn2
	.byte v112
	.byte W36
	.byte N12
	.byte W36
	.byte VOICE, 0x2E
	.byte N12
	.byte Cn2
	.byte v127
	.byte W24
	.byte PEND
mus_battle20_8_86BF8BB: @ 86BF8BB
	.byte VOICE, 0x2F
	.byte W12
	.byte N12
	.byte Cn2
	.byte v112
	.byte W36
	.byte An1
	.byte W24
	.byte VOICE, 0x2E
	.byte N12
	.byte Cn2
	.byte v127
	.byte W24
	.byte PEND
	.byte VOICE, 0x2F
	.byte N12
	.byte Cn2
	.byte v112
	.byte W36
	.byte N12
	.byte W60
	.byte PATT
	.word mus_battle20_8_86BF887
	.byte PATT
	.word mus_battle20_8_86BF8AE
	.byte PATT
	.word mus_battle20_8_86BF8BB
	.byte VOICE, 0x2F
	.byte N12
	.byte Cn2
	.byte v112
	.byte W36
	.byte N12
	.byte W48
	.byte An1
	.byte W12
mus_battle20_8_86BF8EC: @ 86BF8EC
	.byte N12
	.byte Cn2
	.byte v112
	.byte W36
	.byte N12
	.byte W24
	.byte N12
	.byte W36
	.byte PEND
	.byte PATT
	.word mus_battle20_8_86BF87B
	.byte PATT
	.word mus_battle20_8_86BF887
	.byte PATT
	.word mus_battle20_8_86BF87B
	.byte PATT
	.word mus_battle20_8_86BF887
	.byte PATT
	.word mus_battle20_8_86BF87B
	.byte PATT
	.word mus_battle20_8_86BF887
	.byte PATT
	.word mus_battle20_8_86BF87B
	.byte N12
	.byte Cn2
	.byte v112
	.byte W36
	.byte N12
	.byte W48
	.byte N06
	.byte An1
	.byte W06
	.byte Cn2
	.byte W06
mus_battle20_8_86BF923: @ 86BF923
	.byte N12
	.byte Cn2
	.byte v112
	.byte W48
	.byte N12
	.byte W12
	.byte N12
	.byte W36
	.byte PEND
	.byte PATT
	.word mus_battle20_8_86BF923
	.byte PATT
	.word mus_battle20_8_86BF923
mus_battle20_8_86BF936: @ 86BF936
	.byte N12
	.byte Cn2
	.byte v112
	.byte W48
	.byte N12
	.byte W12
	.byte N12
	.byte W24
	.byte An1
	.byte W12
	.byte PEND
	.byte PATT
	.word mus_battle20_8_86BF923
	.byte PATT
	.word mus_battle20_8_86BF923
	.byte PATT
	.word mus_battle20_8_86BF923
	.byte PATT
	.word mus_battle20_8_86BF923
	.byte PATT
	.word mus_battle20_8_86BF923
	.byte PATT
	.word mus_battle20_8_86BF936
	.byte PATT
	.word mus_battle20_8_86BF923
	.byte PATT
	.word mus_battle20_8_86BF923
mus_battle20_8_86BF969: @ 86BF969
	.byte N12
	.byte Cn2
	.byte v112
	.byte W12
	.byte N12
	.byte W36
	.byte N12
	.byte W48
	.byte PEND
	.byte PATT
	.word mus_battle20_8_86BF969
	.byte PATT
	.word mus_battle20_8_86BF969
	.byte N12
	.byte Cn2
	.byte v112
	.byte W12
	.byte N12
	.byte W36
	.byte N12
	.byte W36
	.byte MEMACC, 0x00
	.byte CnM2
	.byte v117
	.byte PAN, 0x60
	.byte W12
	.byte N12
	.byte Gn2
	.byte v088
	.byte W12
	.byte N12
	.byte W24
	.byte En2
	.byte W12
	.byte Gn2
	.byte W24
	.byte N12
	.byte W12
	.byte En2
	.byte W12
	.byte W12
	.byte Gn2
	.byte W12
	.byte En2
	.byte W24
	.byte N12
	.byte W24
	.byte N12
	.byte W24
	.byte Gn2
	.byte W12
	.byte N12
	.byte W12
	.byte En2
	.byte W24
	.byte N12
	.byte W12
	.byte Gn2
	.byte W24
	.byte N12
	.byte W12
	.byte En2
	.byte W12
	.byte Gn2
	.byte W24
	.byte N12
	.byte W12
	.byte N12
	.byte W12
	.byte En2
	.byte W24
	.byte N06
	.byte W06
	.byte Gn2
	.byte W06
	.byte N12
	.byte En2
	.byte W24
	.byte N12
	.byte W24
	.byte N12
	.byte W12
	.byte Gn2
	.byte W12
	.byte N12
	.byte W12
	.byte N12
	.byte W12
	.byte En2
	.byte W24
	.byte N12
	.byte W12
	.byte Gn2
	.byte W12
	.byte N12
	.byte W24
	.byte N12
	.byte W24
	.byte En2
	.byte W24
	.byte N12
	.byte W24
	.byte N12
	.byte W12
	.byte Gn2
	.byte W24
	.byte N06
	.byte En2
	.byte W06
	.byte Gn2
	.byte W06
	.byte N12
	.byte W12
	.byte En2
	.byte W24
	.byte N12
	.byte W12
	.byte Gn2
	.byte W12
	.byte N12
	.byte W12
	.byte N12
	.byte W24
	.byte En2
	.byte W24
	.byte N12
	.byte W24
	.byte N12
	.byte W24
	.byte Gn2
	.byte W24
	.byte N12
	.byte W36
	.byte N12
	.byte W12
	.byte N12
	.byte W12
	.byte N12
	.byte W36
	.byte PATT
	.word mus_battle20_8_86BF872
	.byte PATT
	.word mus_battle20_8_86BF87B
	.byte N09
	.byte Cn2
	.byte v112
	.byte W36
	.byte N12
	.byte W60
	.byte N12
	.byte W96
	.byte PATT
	.word mus_battle20_8_86BF87B
	.byte PATT
	.word mus_battle20_8_86BF87B
	.byte PATT
	.word mus_battle20_8_86BF87B
	.byte PATT
	.word mus_battle20_8_86BF887
	.byte PATT
	.word mus_battle20_8_86BF87B
	.byte PATT
	.word mus_battle20_8_86BF87B
	.byte PATT
	.word mus_battle20_8_86BF887
	.byte PATT
	.word mus_battle20_8_86BF8EC
	.byte PATT
	.word mus_battle20_8_86BF87B
	.byte PATT
	.word mus_battle20_8_86BF87B
	.byte PATT
	.word mus_battle20_8_86BF87B
	.byte PATT
	.word mus_battle20_8_86BF87B
	.byte PATT
	.word mus_battle20_8_86BF87B
	.byte PATT
	.word mus_battle20_8_86BF87B
	.byte PATT
	.word mus_battle20_8_86BF87B
	.byte N12
	.byte Cn2
	.byte v112
	.byte W48
	.byte N12
	.byte W48
	.byte GOTO
	.word mus_battle20_8_86BF8A4
	.byte FINE

@ ***************************************
	.align 2
mus_battle20: @ 86BFA68
	.byte 8
	.byte 0
	.byte mus_battle20_pri
	.byte mus_battle20_rev
	.word mus_battle20_grp

	.word mus_battle20_1
	.word mus_battle20_2
	.word mus_battle20_3
	.word mus_battle20_4
	.word mus_battle20_5
	.word mus_battle20_6
	.word mus_battle20_7
	.word mus_battle20_8
