	.include "MPlayDef.s"
	.section .rodata
	.global mus_battle32
	.align 2
	.equ mus_battle32_grp, voicegroup120
	.equ mus_battle32_pri, 0
	.equ mus_battle32_rev, reverb_set+50

mus_battle32_1: @ 86BDBBC
	.byte KEYSH, 0x00
	.byte TEMPO, 0x62
	.byte VOICE, 0x30
	.byte VOL, 0x50
	.byte LFOS, 0x12
	.byte PAN, 0x36
	.byte N06
	.byte Cn5
	.byte v092
	.byte W06
	.byte Bn4
	.byte W06
	.byte As4
	.byte W06
	.byte An4
	.byte W06
	.byte Gs4
	.byte W06
	.byte Gn4
	.byte W06
	.byte Fs4
	.byte W06
	.byte Fn4
	.byte W06
	.byte Gs4
	.byte W06
	.byte Gn4
	.byte W06
	.byte Fs4
	.byte W06
	.byte Fn4
	.byte W06
	.byte En4
	.byte W06
	.byte Ds4
	.byte W06
	.byte Dn4
	.byte W06
	.byte Cs4
	.byte W06
	.byte En4
	.byte W06
	.byte Ds4
	.byte W06
	.byte Dn4
	.byte W06
	.byte Cs4
	.byte W06
	.byte Cn4
	.byte W06
	.byte Bn3
	.byte W06
	.byte As3
	.byte W06
	.byte An3
	.byte W06
	.byte Cn4
	.byte W06
	.byte Bn3
	.byte W06
	.byte As3
	.byte W06
	.byte An3
	.byte W06
	.byte As3
	.byte W06
	.byte An3
	.byte W06
	.byte As3
	.byte W06
	.byte Bn3
	.byte W06
	.byte VOICE, 0x38
	.byte PAN, 0x4A
	.byte N12
	.byte Gn3
	.byte v104
	.byte W36
	.byte Gs3
	.byte W36
	.byte Gn2
	.byte W24
	.byte En3
	.byte W36
	.byte Fn3
	.byte W36
	.byte N24
	.byte As2
	.byte W24
	.byte N12
	.byte Gn3
	.byte W36
	.byte Gs3
	.byte W36
	.byte Gn2
	.byte W24
	.byte En3
	.byte W36
	.byte Fn3
	.byte W36
	.byte N24
	.byte Gs3
	.byte W24
	.byte VOICE, 0x3C
	.byte PAN, 0x30
	.byte N48
	.byte Cn4
	.byte v100
	.byte W48
	.byte Cn3
	.byte W48
	.byte Gn3
	.byte W48
	.byte Cs3
	.byte W48
	.byte Cn4
	.byte W48
	.byte Cn3
	.byte W48
	.byte Cs4
	.byte W48
	.byte N24
	.byte Ds3
	.byte W24
	.byte Cs4
	.byte W24
mus_battle32_1_86BDC44: @ 86BDC44
	.byte PAN, 0x4A
	.byte N48
	.byte Gn3
	.byte v100
	.byte W48
	.byte N42
	.byte Fn3
	.byte W42
	.byte N06
	.byte Gs3
	.byte W06
	.byte N36
	.byte Gn3
	.byte W36
	.byte N12
	.byte Cn3
	.byte W24
	.byte N12
	.byte W12
	.byte Dn3
	.byte W12
	.byte Fn3
	.byte W12
	.byte N36
	.byte Gn3
	.byte W36
	.byte Cn4
	.byte W36
	.byte N12
	.byte As3
	.byte W12
	.byte An3
	.byte W12
	.byte As3
	.byte W12
	.byte Cn4
	.byte W24
	.byte N60
	.byte Gn3
	.byte W60
	.byte PAN, 0x50
	.byte N48
	.byte Dn4
	.byte W48
	.byte Cn4
	.byte W48
	.byte N24
	.byte As3
	.byte W24
	.byte Cn4
	.byte W24
	.byte As3
	.byte W24
	.byte An3
	.byte W24
	.byte N72
	.byte Gn3
	.byte W72
	.byte N24
	.byte En3
	.byte W24
	.byte N92
	.byte Cn4
	.byte W96
	.byte N48
	.byte Dn4
	.byte W12
	.byte PAN, 0x54
	.byte W36
	.byte N48
	.byte Cn4
	.byte W48
	.byte As3
	.byte W48
	.byte Dn4
	.byte W48
	.byte N72
	.byte En4
	.byte W72
	.byte N24
	.byte Dn4
	.byte W24
	.byte N92
	.byte Cn4
	.byte W96
	.byte VOICE, 0x01
	.byte PAN, 0x4A
	.byte N36
	.byte Cn3
	.byte v108
	.byte W36
	.byte Fn3
	.byte W36
	.byte N24
	.byte En3
	.byte W24
	.byte N36
	.byte Fn3
	.byte W36
	.byte N12
	.byte Cn3
	.byte W24
	.byte N12
	.byte W12
	.byte Dn3
	.byte W12
	.byte Fn3
	.byte W12
	.byte N36
	.byte Gn3
	.byte W36
	.byte Cn3
	.byte W36
	.byte N12
	.byte As3
	.byte W12
	.byte An3
	.byte W12
	.byte As3
	.byte W12
	.byte Cn4
	.byte W24
	.byte N60
	.byte Gn3
	.byte W56
	.byte W01
	.byte VOICE, 0x38
	.byte W03
	.byte N48
	.byte Dn4
	.byte W24
	.byte MOD, 0x06
	.byte W24
	.byte CnM2
	.byte N48
	.byte Cn4
	.byte W24
	.byte MOD, 0x06
	.byte W24
	.byte CnM2
	.byte N24
	.byte As3
	.byte W24
	.byte Cn4
	.byte W24
	.byte As3
	.byte W24
	.byte An3
	.byte W24
	.byte N72
	.byte Gn3
	.byte W36
	.byte MOD, 0x06
	.byte W36
	.byte CnM2
	.byte N24
	.byte En3
	.byte W24
	.byte N56
	.byte Cn4
	.byte v104
	.byte W30
	.byte MOD, 0x06
	.byte W03
	.byte VOL, 0x4C
	.byte W06
	.byte Bn3
	.byte W06
	.byte En3
	.byte W03
	.byte Cs2
	.byte W03
	.byte An0
	.byte W03
	.byte FnM1
	.byte W03
	.byte VOICE, 0x30
	.byte MOD, 0x00
	.byte W03
	.byte PAN, 0x54
	.byte N12
	.byte Gn3
	.byte v092
	.byte W03
	.byte VOL, 0x50
	.byte W09
	.byte N12
	.byte Cn4
	.byte W24
	.byte N48
	.byte Dn4
	.byte W48
	.byte Cn4
	.byte W48
	.byte As3
	.byte W48
	.byte Dn4
	.byte W48
	.byte N72
	.byte En4
	.byte W72
	.byte N24
	.byte Cn4
	.byte W24
	.byte N92
	.byte Gn4
	.byte W96
	.byte VOICE, 0x01
	.byte N36
	.byte Gn3
	.byte v108
	.byte W36
	.byte Fn3
	.byte W36
	.byte N24
	.byte Gn3
	.byte W24
	.byte N36
	.byte An3
	.byte W36
	.byte Fn3
	.byte W36
	.byte N24
	.byte An3
	.byte W24
	.byte TIE
	.byte Gn3
	.byte W96
	.byte W72
	.byte EOT
	.byte W24
	.byte W96
	.byte W96
	.byte VOICE, 0x3C
	.byte PAN, 0x4A
	.byte TIE
	.byte Cn3
	.byte v100
	.byte W96
	.byte W72
	.byte EOT
	.byte N12
	.byte W12
	.byte As2
	.byte W12
	.byte N96
	.byte Cs3
	.byte W96
	.byte Ds3
	.byte W96
	.byte TIE
	.byte Cn3
	.byte W96
	.byte W72
	.byte EOT
	.byte N12
	.byte W12
	.byte As2
	.byte W12
	.byte N96
	.byte Cs3
	.byte W96
	.byte Ds3
	.byte W96
	.byte TIE
	.byte As2
	.byte W96
	.byte W96
	.byte W96
	.byte W96
	.byte W96
	.byte W96
	.byte EOT
	.byte VOICE, 0x30
	.byte PAN, 0x54
	.byte N96
	.byte Gn2
	.byte W96
	.byte N48
	.byte Fn2
	.byte W48
	.byte Gn2
	.byte W48
	.byte N96
	.byte Cn2
	.byte W96
	.byte Gn2
	.byte W96
	.byte Gs2
	.byte W96
	.byte N48
	.byte Fn2
	.byte W48
	.byte Gs2
	.byte W48
	.byte N96
	.byte Gn2
	.byte W96
	.byte Cn3
	.byte W96
	.byte GOTO
	.word mus_battle32_1_86BDC44
	.byte FINE

mus_battle32_2: @ 86BDD8A
	.byte KEYSH, 0x00
	.byte VOICE, 0x01
	.byte VOL, 0x50
	.byte LFOS, 0x12
	.byte PAN, 0x4A
	.byte N06
	.byte Gn5
	.byte v080
	.byte W06
	.byte Gs5
	.byte W06
	.byte N12
	.byte Gn5
	.byte W12
	.byte N06
	.byte W06
	.byte Gs5
	.byte W06
	.byte N12
	.byte Gn5
	.byte W12
	.byte N06
	.byte W06
	.byte Gs5
	.byte W06
	.byte N12
	.byte Gn5
	.byte W12
	.byte N06
	.byte W06
	.byte Gs5
	.byte W06
	.byte N12
	.byte Gn5
	.byte W12
	.byte N06
	.byte W06
	.byte Gs5
	.byte W06
	.byte N12
	.byte Gn5
	.byte W12
	.byte N06
	.byte W06
	.byte Gs5
	.byte W06
	.byte N12
	.byte Gn5
	.byte W12
	.byte N06
	.byte W06
	.byte Gs5
	.byte W06
	.byte N12
	.byte Gn5
	.byte W12
	.byte N06
	.byte W06
	.byte Gs5
	.byte W06
	.byte N12
	.byte Gn5
	.byte W12
	.byte VOICE, 0x38
	.byte PAN, 0x40
	.byte N12
	.byte Cn4
	.byte v104
	.byte W36
	.byte Cs4
	.byte W36
	.byte Cn3
	.byte W24
	.byte Gn3
	.byte W36
	.byte Gs3
	.byte W36
	.byte N24
	.byte Cs3
	.byte W24
	.byte N12
	.byte Cn4
	.byte W36
	.byte Cs4
	.byte W36
	.byte Cn3
	.byte W24
	.byte Gn3
	.byte W36
	.byte Gs3
	.byte W36
	.byte N24
	.byte Cs4
	.byte W24
	.byte VOICE, 0x2D
	.byte PAN, 0x40
	.byte N12
	.byte Cn5
	.byte v108
	.byte W36
	.byte Cs5
	.byte W36
	.byte Cn4
	.byte W24
	.byte Gn4
	.byte W36
	.byte Gs4
	.byte W36
	.byte N24
	.byte Cs4
	.byte W24
	.byte N12
	.byte Cn5
	.byte W36
	.byte Cs5
	.byte W36
	.byte N24
	.byte Gn4
	.byte W24
	.byte N12
	.byte Cn5
	.byte W36
	.byte Cs5
	.byte W36
	.byte N24
	.byte Ds5
	.byte W24
mus_battle32_2_86BDE12: @ 86BDE12
	.byte VOICE, 0x30
	.byte PAN, 0x40
	.byte N48
	.byte Cn4
	.byte v100
	.byte W48
	.byte As3
	.byte W48
	.byte N36
	.byte Dn4
	.byte W36
	.byte N12
	.byte Gn3
	.byte W24
	.byte N12
	.byte W12
	.byte As3
	.byte W12
	.byte Dn4
	.byte W12
	.byte N72
	.byte En4
	.byte W72
	.byte N12
	.byte Dn4
	.byte W12
	.byte En4
	.byte W12
	.byte Fn4
	.byte W12
	.byte En4
	.byte W24
	.byte N60
	.byte Cn4
	.byte W60
	.byte PAN, 0x40
	.byte N48
	.byte As4
	.byte W48
	.byte An4
	.byte W48
	.byte N24
	.byte Gn4
	.byte W24
	.byte An4
	.byte W24
	.byte Gn4
	.byte W24
	.byte Fn4
	.byte W24
	.byte N72
	.byte En4
	.byte W72
	.byte N24
	.byte Cn4
	.byte W24
	.byte N92
	.byte Gn4
	.byte W96
	.byte N48
	.byte As4
	.byte W12
	.byte PAN, 0x42
	.byte W36
	.byte N48
	.byte An4
	.byte W48
	.byte N24
	.byte As4
	.byte W24
	.byte An4
	.byte W24
	.byte Dn5
	.byte W24
	.byte Fn5
	.byte W24
	.byte N72
	.byte En5
	.byte W72
	.byte N24
	.byte Dn5
	.byte W24
	.byte N92
	.byte Cn5
	.byte W96
	.byte VOICE, 0x38
	.byte PAN, 0x41
	.byte N48
	.byte Cn4
	.byte v104
	.byte W24
	.byte MOD, 0x06
	.byte W24
	.byte CnM2
	.byte N48
	.byte As3
	.byte W24
	.byte MOD, 0x06
	.byte W24
	.byte CnM2
	.byte N36
	.byte Dn4
	.byte W18
	.byte MOD, 0x06
	.byte W18
	.byte CnM2
	.byte N12
	.byte Gn3
	.byte W24
	.byte N12
	.byte W12
	.byte As3
	.byte W12
	.byte Dn4
	.byte W12
	.byte N72
	.byte En4
	.byte W36
	.byte MOD, 0x06
	.byte W36
	.byte CnM2
	.byte N12
	.byte Dn4
	.byte W12
	.byte En4
	.byte W12
	.byte Fn4
	.byte W12
	.byte En4
	.byte W24
	.byte N60
	.byte Cn4
	.byte W24
	.byte W03
	.byte MOD, 0x06
	.byte W32
	.byte W01
	.byte CnM2
	.byte N48
	.byte As4
	.byte v108
	.byte W24
	.byte MOD, 0x06
	.byte W24
	.byte CnM2
	.byte N48
	.byte An4
	.byte W24
	.byte MOD, 0x06
	.byte W24
	.byte CnM2
	.byte N24
	.byte Gn4
	.byte W24
	.byte An4
	.byte W24
	.byte Gn4
	.byte W24
	.byte Fn4
	.byte W24
	.byte N72
	.byte En4
	.byte W36
	.byte MOD, 0x06
	.byte W36
	.byte CnM2
	.byte N24
	.byte Cn4
	.byte W24
	.byte N56
	.byte Gn4
	.byte W30
	.byte MOD, 0x06
	.byte W03
	.byte VOL, 0x4C
	.byte W06
	.byte Bn3
	.byte W06
	.byte En3
	.byte W03
	.byte Cs2
	.byte W03
	.byte An0
	.byte W03
	.byte FnM1
	.byte W03
	.byte MOD, 0x00
	.byte W03
	.byte VOICE, 0x30
	.byte PAN, 0x42
	.byte N12
	.byte Gn4
	.byte v092
	.byte W03
	.byte VOL, 0x50
	.byte W09
	.byte N12
	.byte Cn5
	.byte W24
	.byte N48
	.byte As4
	.byte W48
	.byte An4
	.byte W48
	.byte N24
	.byte As4
	.byte W24
	.byte An4
	.byte W24
	.byte Dn5
	.byte W24
	.byte Fn5
	.byte W24
	.byte N72
	.byte En5
	.byte W72
	.byte N24
	.byte Cn5
	.byte W24
	.byte N92
	.byte Gn5
	.byte W96
	.byte VOICE, 0x01
	.byte N36
	.byte Cn3
	.byte v108
	.byte W36
	.byte As2
	.byte W36
	.byte N24
	.byte Cn3
	.byte W24
	.byte N36
	.byte Dn3
	.byte W36
	.byte As2
	.byte W36
	.byte N24
	.byte Dn3
	.byte W24
	.byte TIE
	.byte Cn3
	.byte W96
	.byte W72
	.byte EOT
	.byte W24
	.byte W96
	.byte W96
	.byte W96
	.byte W96
	.byte W96
	.byte W96
	.byte W96
	.byte VOICE, 0x3C
	.byte PAN, 0x40
	.byte N72
	.byte Cn4
	.byte v100
	.byte W72
	.byte N12
	.byte W12
	.byte As3
	.byte W12
	.byte N96
	.byte Cs4
	.byte W96
	.byte Ds4
	.byte W96
	.byte TIE
	.byte Fn4
	.byte W96
	.byte W96
	.byte W96
	.byte W96
	.byte W96
	.byte W96
	.byte EOT
	.byte VOICE, 0x30
	.byte PAN, 0x42
	.byte N96
	.byte Cn3
	.byte W96
	.byte N42
	.byte As2
	.byte W42
	.byte N06
	.byte Cn3
	.byte W06
	.byte N48
	.byte Dn3
	.byte W48
	.byte N96
	.byte Gn2
	.byte W96
	.byte Cn3
	.byte W96
	.byte Cs3
	.byte W96
	.byte N48
	.byte As2
	.byte W48
	.byte N36
	.byte Cs3
	.byte W36
	.byte N12
	.byte En3
	.byte W12
	.byte N96
	.byte Cn3
	.byte W96
	.byte En3
	.byte W96
	.byte GOTO
	.word mus_battle32_2_86BDE12
	.byte FINE

mus_battle32_3: @ 86BDF69
	.byte KEYSH, 0x00
	.byte VOICE, 0x21
	.byte VOL, 0x50
	.byte PAN, 0x40
	.byte N24
	.byte Cn2
	.byte v108
	.byte W24
	.byte Cn1
	.byte W24
	.byte As1
	.byte W24
	.byte Cs1
	.byte W24
	.byte Gs1
	.byte W24
	.byte N12
	.byte As1
	.byte W12
	.byte Gs1
	.byte W12
	.byte Gn1
	.byte W12
	.byte Fn1
	.byte W12
	.byte Ds1
	.byte W12
	.byte Cs1
	.byte W12
mus_battle32_3_86BDF8A: @ 86BDF8A
	.byte N12
	.byte Cn1
	.byte v108
	.byte W12
	.byte Fs1
	.byte W12
	.byte Fn1
	.byte W12
	.byte Ds1
	.byte W12
	.byte Fn1
	.byte W12
	.byte Ds1
	.byte W12
	.byte N12
	.byte W12
	.byte Fn1
	.byte W12
	.byte PEND
mus_battle32_3_86BDF9D: @ 86BDF9D
	.byte N12
	.byte Cn1
	.byte v108
	.byte W12
	.byte Fs1
	.byte W12
	.byte Fn1
	.byte W12
	.byte Ds1
	.byte W12
	.byte Fn1
	.byte W12
	.byte Ds1
	.byte W12
	.byte N12
	.byte W12
	.byte Cs1
	.byte W12
	.byte PEND
	.byte PATT
	.word mus_battle32_3_86BDF8A
	.byte PATT
	.word mus_battle32_3_86BDF9D
	.byte PATT
	.word mus_battle32_3_86BDF8A
	.byte PATT
	.word mus_battle32_3_86BDF9D
	.byte PATT
	.word mus_battle32_3_86BDF8A
	.byte PATT
	.word mus_battle32_3_86BDF9D
mus_battle32_3_86BDFCE: @ 86BDFCE
	.byte N12
	.byte Cn1
	.byte v108
	.byte W12
	.byte Gn1
	.byte W12
	.byte Cn1
	.byte W12
	.byte Gn1
	.byte W12
	.byte Cn1
	.byte W12
	.byte Gn1
	.byte W12
	.byte Cn1
	.byte W12
	.byte Gn1
	.byte W12
	.byte PEND
	.byte Cn1
	.byte W12
	.byte Gn1
	.byte W12
	.byte Cn1
	.byte W12
	.byte Gn1
	.byte W12
	.byte Cn1
	.byte W12
	.byte Gn1
	.byte W12
	.byte Cn1
	.byte W12
	.byte Dn1
	.byte W12
	.byte PATT
	.word mus_battle32_3_86BDFCE
	.byte N12
	.byte Cn1
	.byte v108
	.byte W12
	.byte Gn1
	.byte W12
	.byte Cn1
	.byte W12
	.byte Gn1
	.byte W12
	.byte N12
	.byte W12
	.byte Cn1
	.byte W12
	.byte Dn1
	.byte W12
	.byte Cn1
	.byte W12
mus_battle32_3_86BE008: @ 86BE008
	.byte N12
	.byte As0
	.byte v108
	.byte W12
	.byte Fn1
	.byte W12
	.byte As0
	.byte W12
	.byte Fn1
	.byte W12
	.byte As0
	.byte W12
	.byte Fn1
	.byte W12
	.byte As0
	.byte W12
	.byte Fn1
	.byte W12
	.byte PEND
mus_battle32_3_86BE01B: @ 86BE01B
	.byte N12
	.byte As0
	.byte v108
	.byte W12
	.byte Fn1
	.byte W12
	.byte As0
	.byte W12
	.byte Fn1
	.byte W12
	.byte As0
	.byte W12
	.byte Fn1
	.byte W12
	.byte As0
	.byte W12
	.byte Bn0
	.byte W12
	.byte PEND
	.byte PATT
	.word mus_battle32_3_86BDFCE
mus_battle32_3_86BE033: @ 86BE033
	.byte N12
	.byte Cn1
	.byte v108
	.byte W12
	.byte Gn1
	.byte W12
	.byte Cn1
	.byte W12
	.byte Gn1
	.byte W12
	.byte Cn1
	.byte W12
	.byte Gn1
	.byte W12
	.byte En1
	.byte W12
	.byte Gn1
	.byte W12
	.byte PEND
	.byte PATT
	.word mus_battle32_3_86BE008
	.byte PATT
	.word mus_battle32_3_86BE008
	.byte PATT
	.word mus_battle32_3_86BDFCE
mus_battle32_3_86BE055: @ 86BE055
	.byte N12
	.byte Cn1
	.byte v108
	.byte W12
	.byte Gn1
	.byte W12
	.byte Cn1
	.byte W12
	.byte Gn1
	.byte W12
	.byte Cn1
	.byte W12
	.byte Gn1
	.byte W12
	.byte Cn2
	.byte W12
	.byte Gn1
	.byte W12
	.byte PEND
	.byte PATT
	.word mus_battle32_3_86BDFCE
	.byte PATT
	.word mus_battle32_3_86BDFCE
	.byte PATT
	.word mus_battle32_3_86BDFCE
	.byte N12
	.byte Cn1
	.byte v108
	.byte W12
	.byte Gn1
	.byte W24
	.byte N12
	.byte W12
	.byte Cn2
	.byte W12
	.byte Cn1
	.byte W12
	.byte Dn1
	.byte W12
	.byte Cn1
	.byte W12
	.byte PATT
	.word mus_battle32_3_86BE008
	.byte PATT
	.word mus_battle32_3_86BE01B
	.byte PATT
	.word mus_battle32_3_86BDFCE
	.byte N12
	.byte Cn1
	.byte v108
	.byte W12
	.byte Gn1
	.byte W12
	.byte Cn1
	.byte W12
	.byte Gn1
	.byte W12
	.byte Cn1
	.byte W12
	.byte Gn1
	.byte W12
	.byte En1
	.byte W12
	.byte Cn1
	.byte W12
	.byte PATT
	.word mus_battle32_3_86BE008
	.byte PATT
	.word mus_battle32_3_86BE008
	.byte PATT
	.word mus_battle32_3_86BDFCE
	.byte PATT
	.word mus_battle32_3_86BE033
	.byte PATT
	.word mus_battle32_3_86BDFCE
	.byte PATT
	.word mus_battle32_3_86BDFCE
	.byte PATT
	.word mus_battle32_3_86BDFCE
	.byte PATT
	.word mus_battle32_3_86BDFCE
mus_battle32_3_86BE0D0: @ 86BE0D0
	.byte N12
	.byte Cs1
	.byte v108
	.byte W12
	.byte Gs1
	.byte W12
	.byte Cs1
	.byte W12
	.byte Gs1
	.byte W12
	.byte Cs1
	.byte W12
	.byte Gs1
	.byte W12
	.byte Cs1
	.byte W12
	.byte Gs1
	.byte W12
	.byte PEND
mus_battle32_3_86BE0E3: @ 86BE0E3
	.byte N12
	.byte Ds1
	.byte v108
	.byte W12
	.byte As1
	.byte W12
	.byte Ds1
	.byte W12
	.byte As1
	.byte W12
	.byte Ds1
	.byte W12
	.byte As1
	.byte W12
	.byte Ds1
	.byte W12
	.byte As1
	.byte W12
	.byte PEND
	.byte PATT
	.word mus_battle32_3_86BDFCE
	.byte PATT
	.word mus_battle32_3_86BDFCE
	.byte PATT
	.word mus_battle32_3_86BE0D0
	.byte PATT
	.word mus_battle32_3_86BE0E3
	.byte PATT
	.word mus_battle32_3_86BDFCE
	.byte PATT
	.word mus_battle32_3_86BDFCE
	.byte PATT
	.word mus_battle32_3_86BE0D0
	.byte PATT
	.word mus_battle32_3_86BE0E3
	.byte PATT
	.word mus_battle32_3_86BE008
	.byte PATT
	.word mus_battle32_3_86BE008
	.byte PATT
	.word mus_battle32_3_86BE008
	.byte PATT
	.word mus_battle32_3_86BE008
	.byte PATT
	.word mus_battle32_3_86BE008
	.byte PATT
	.word mus_battle32_3_86BE008
	.byte PATT
	.word mus_battle32_3_86BDFCE
	.byte PATT
	.word mus_battle32_3_86BDFCE
	.byte PATT
	.word mus_battle32_3_86BDFCE
	.byte PATT
	.word mus_battle32_3_86BDFCE
	.byte PATT
	.word mus_battle32_3_86BE008
	.byte PATT
	.word mus_battle32_3_86BE008
	.byte PATT
	.word mus_battle32_3_86BDFCE
	.byte PATT
	.word mus_battle32_3_86BE055
	.byte GOTO
	.word mus_battle32_3_86BDFCE
	.byte FINE

mus_battle32_4: @ 86BE16A
	.byte KEYSH, 0x00
	.byte VOICE, 0x50
	.byte LFOS, 0x12
	.byte VOL, 0x50
	.byte XCMD, 0x08
	.byte AsM2
	.byte v009
	.byte GsM2
	.byte PAN, 0x10
	.byte W12
	.byte N06
	.byte Cn6
	.byte v052
	.byte W12
	.byte Bn5
	.byte W12
	.byte Cn6
	.byte W24
	.byte N06
	.byte W24
	.byte N06
	.byte W12
	.byte W12
	.byte N06
	.byte W12
	.byte Bn5
	.byte W12
	.byte Cn6
	.byte W24
	.byte N06
	.byte W24
	.byte N06
	.byte W12
	.byte VOICE, 0x52
	.byte PAN, 0x70
	.byte N12
	.byte Cn3
	.byte v060
	.byte W12
	.byte VOICE, 0x53
	.byte N12
	.byte W12
	.byte MOD, 0x06
	.byte N12
	.byte W12
	.byte N12
	.byte W12
	.byte VOICE, 0x52
	.byte MOD, 0x00
	.byte N12
	.byte Cn2
	.byte W12
	.byte VOICE, 0x53
	.byte N12
	.byte W12
	.byte MOD, 0x06
	.byte N12
	.byte W12
	.byte N12
	.byte W12
	.byte VOICE, 0x52
	.byte MOD, 0x00
	.byte N12
	.byte Gn2
	.byte W12
	.byte VOICE, 0x53
	.byte N12
	.byte W12
	.byte MOD, 0x06
	.byte N12
	.byte W12
	.byte N12
	.byte W12
	.byte VOICE, 0x52
	.byte MOD, 0x00
	.byte N12
	.byte Cs2
	.byte W12
	.byte VOICE, 0x53
	.byte N12
	.byte W12
	.byte MOD, 0x06
	.byte N12
	.byte W12
	.byte N12
	.byte W12
	.byte VOICE, 0x52
	.byte MOD, 0x00
	.byte N12
	.byte Cn3
	.byte W12
	.byte VOICE, 0x53
	.byte N12
	.byte W12
	.byte MOD, 0x06
	.byte N12
	.byte W12
	.byte N12
	.byte W12
	.byte VOICE, 0x52
	.byte MOD, 0x00
	.byte N12
	.byte Gn3
	.byte W12
	.byte VOICE, 0x53
	.byte N12
	.byte W12
	.byte MOD, 0x06
	.byte N12
	.byte W12
	.byte N12
	.byte W12
	.byte VOICE, 0x52
	.byte MOD, 0x00
	.byte N12
	.byte Cn4
	.byte W12
	.byte VOICE, 0x53
	.byte N12
	.byte W12
	.byte MOD, 0x06
	.byte N12
	.byte W12
	.byte N12
	.byte W12
	.byte VOICE, 0x52
	.byte MOD, 0x00
	.byte N12
	.byte Cs3
	.byte W12
	.byte VOICE, 0x53
	.byte N12
	.byte W12
	.byte MOD, 0x06
	.byte N12
	.byte W12
	.byte N12
	.byte W12
	.byte VOICE, 0x04
	.byte PAN, 0x10
	.byte MOD, 0x00
	.byte N12
	.byte Gn4
	.byte v040
	.byte W36
	.byte Gs4
	.byte W36
	.byte Gn3
	.byte W24
	.byte En4
	.byte W36
	.byte Fn4
	.byte W36
	.byte N24
	.byte Gn3
	.byte W24
	.byte N12
	.byte Gn4
	.byte W36
	.byte Gs4
	.byte W36
	.byte N24
	.byte Cn4
	.byte W24
	.byte N12
	.byte Gn4
	.byte W36
	.byte Gs4
	.byte W36
	.byte N24
	.byte W24
mus_battle32_4_86BE23E: @ 86BE23E
	.byte VOICE, 0x54
	.byte PAN, 0x40
	.byte N12
	.byte En4
	.byte v040
	.byte W36
	.byte Fn4
	.byte W36
	.byte Gn4
	.byte W24
	.byte W60
	.byte Gn4
	.byte v052
	.byte W12
	.byte As4
	.byte W12
	.byte Dn5
	.byte W12
	.byte N36
	.byte En5
	.byte W18
	.byte MOD, 0x06
	.byte W18
	.byte CnM2
	.byte N36
	.byte Cn5
	.byte W18
	.byte MOD, 0x06
	.byte W18
	.byte CnM2
	.byte N12
	.byte Dn5
	.byte W12
	.byte En5
	.byte W12
	.byte Fn5
	.byte W12
	.byte En5
	.byte W24
	.byte N60
	.byte Cn5
	.byte W24
	.byte MOD, 0x07
	.byte W36
mus_battle32_4_86BE26F: @ 86BE26F
	.byte VOICE, 0x50
	.byte MOD, 0x00
	.byte N48
	.byte As3
	.byte v060
	.byte W48
	.byte An3
	.byte W48
	.byte PEND
mus_battle32_4_86BE27A: @ 86BE27A
	.byte N24
	.byte Gn3
	.byte v060
	.byte W24
	.byte An3
	.byte W24
	.byte Gn3
	.byte W24
	.byte Fn3
	.byte W24
	.byte PEND
mus_battle32_4_86BE285: @ 86BE285
	.byte N72
	.byte En3
	.byte v060
	.byte W72
	.byte N24
	.byte Cn3
	.byte W24
	.byte PEND
mus_battle32_4_86BE28D: @ 86BE28D
	.byte N60
	.byte Gn3
	.byte v060
	.byte W60
	.byte VOICE, 0x06
	.byte N12
	.byte En3
	.byte v072
	.byte W12
	.byte Cn3
	.byte W12
	.byte Gn2
	.byte W12
	.byte PEND
	.byte As2
	.byte W12
	.byte Fn2
	.byte W12
	.byte As2
	.byte W12
	.byte Dn3
	.byte W12
	.byte PAN, 0x11
	.byte N12
	.byte Fn3
	.byte W12
	.byte An3
	.byte W12
	.byte Fn3
	.byte W12
	.byte Dn3
	.byte W12
	.byte PAN, 0x40
	.byte N12
	.byte As2
	.byte W12
	.byte Fn2
	.byte W12
	.byte As2
	.byte W12
	.byte Dn3
	.byte W12
	.byte PAN, 0x70
	.byte N12
	.byte Fn3
	.byte W12
	.byte An3
	.byte W12
	.byte Fn3
	.byte W12
	.byte Dn3
	.byte W12
	.byte PAN, 0x40
	.byte N12
	.byte Cn3
	.byte W12
	.byte Gn2
	.byte W12
	.byte Cn3
	.byte W12
	.byte En3
	.byte W12
	.byte PAN, 0x0F
	.byte N12
	.byte Gn3
	.byte W12
	.byte Cn4
	.byte W12
	.byte Gn3
	.byte W12
	.byte En3
	.byte W12
	.byte PAN, 0x40
	.byte N12
	.byte Cn3
	.byte W12
	.byte Gn2
	.byte W12
	.byte Cn3
	.byte W12
	.byte En3
	.byte W12
	.byte PAN, 0x73
	.byte N12
	.byte Gn3
	.byte W12
	.byte Cn4
	.byte W12
	.byte Gn3
	.byte W12
	.byte En3
	.byte W12
	.byte VOICE, 0x54
	.byte PAN, 0x40
	.byte N12
	.byte Cn5
	.byte v040
	.byte W12
	.byte Gn4
	.byte W12
	.byte Cn5
	.byte W12
	.byte N24
	.byte Fn5
	.byte W12
	.byte MOD, 0x06
	.byte W12
	.byte CnM2
	.byte N12
	.byte En5
	.byte W12
	.byte Dn5
	.byte W12
	.byte Cn5
	.byte W12
	.byte As4
	.byte W12
	.byte Fn4
	.byte W12
	.byte As4
	.byte W12
	.byte N24
	.byte Dn5
	.byte W12
	.byte MOD, 0x06
	.byte W12
	.byte CnM2
	.byte N12
	.byte Cn5
	.byte W12
	.byte As4
	.byte W12
	.byte Dn5
	.byte W12
	.byte N36
	.byte En5
	.byte W21
	.byte MOD, 0x06
	.byte W15
	.byte CnM2
	.byte N36
	.byte Cn5
	.byte W18
	.byte MOD, 0x06
	.byte W18
	.byte CnM2
	.byte N12
	.byte Dn5
	.byte W12
	.byte En5
	.byte W12
	.byte Fn5
	.byte W12
	.byte En5
	.byte W24
	.byte N60
	.byte Cn5
	.byte W24
	.byte W03
	.byte MOD, 0x06
	.byte W32
	.byte W01
	.byte PATT
	.word mus_battle32_4_86BE26F
	.byte PATT
	.word mus_battle32_4_86BE27A
	.byte PATT
	.word mus_battle32_4_86BE285
	.byte PATT
	.word mus_battle32_4_86BE28D
	.byte N12
	.byte Fn2
	.byte v072
	.byte W12
	.byte As2
	.byte W12
	.byte Dn3
	.byte W12
	.byte Fn3
	.byte W12
	.byte PAN, 0x11
	.byte N12
	.byte An3
	.byte W12
	.byte Fn3
	.byte W12
	.byte Dn3
	.byte W12
	.byte As2
	.byte W12
	.byte PAN, 0x40
	.byte N12
	.byte Fn2
	.byte W12
	.byte As2
	.byte W12
	.byte Dn3
	.byte W12
	.byte Fn3
	.byte W12
	.byte PAN, 0x70
	.byte N12
	.byte An3
	.byte W12
	.byte Fn3
	.byte W12
	.byte Dn3
	.byte W12
	.byte As2
	.byte W12
	.byte PAN, 0x40
	.byte N12
	.byte Gn2
	.byte W12
	.byte Cn3
	.byte W12
	.byte En3
	.byte W12
	.byte Gn3
	.byte W12
	.byte PAN, 0x0F
	.byte N12
	.byte Cn4
	.byte W12
	.byte Gn3
	.byte W12
	.byte En3
	.byte W12
	.byte Cn3
	.byte W12
	.byte PAN, 0x40
	.byte N12
	.byte Gn2
	.byte W12
	.byte Cn3
	.byte W12
	.byte En3
	.byte W12
	.byte Gn3
	.byte W12
	.byte PAN, 0x73
	.byte N12
	.byte Cn4
	.byte W12
	.byte Gn3
	.byte W12
	.byte En3
	.byte W12
	.byte Cn3
	.byte W12
	.byte PAN, 0x40
	.byte W96
	.byte W96
	.byte W96
	.byte VOICE, 0x54
	.byte N72
	.byte Cn2
	.byte W72
	.byte N12
	.byte W12
	.byte As1
	.byte W12
	.byte N96
	.byte Cs2
	.byte W96
	.byte Ds2
	.byte W96
	.byte TIE
	.byte Cn2
	.byte W96
	.byte W72
	.byte EOT
	.byte N12
	.byte W12
	.byte As1
	.byte W12
	.byte N96
	.byte Cs2
	.byte W96
	.byte Ds2
	.byte W96
	.byte TIE
	.byte Cn2
	.byte W96
	.byte W72
	.byte EOT
	.byte N12
	.byte W12
	.byte As1
	.byte W12
	.byte N96
	.byte Cs2
	.byte W96
	.byte Ds2
	.byte W96
	.byte TIE
	.byte Fn2
	.byte W96
	.byte W96
	.byte EOT
	.byte VOICE, 0x56
	.byte N12
	.byte W12
	.byte N12
	.byte W12
	.byte N12
	.byte W12
	.byte N12
	.byte W12
	.byte N12
	.byte W12
	.byte N12
	.byte W12
	.byte N12
	.byte W12
	.byte N12
	.byte W12
mus_battle32_4_86BE3EF: @ 86BE3EF
	.byte N12
	.byte Fn2
	.byte v072
	.byte W12
	.byte N12
	.byte W12
	.byte N12
	.byte W12
	.byte N12
	.byte W12
	.byte N12
	.byte W12
	.byte N12
	.byte W12
	.byte N12
	.byte W12
	.byte N12
	.byte W12
	.byte PEND
	.byte PATT
	.word mus_battle32_4_86BE3EF
	.byte PATT
	.word mus_battle32_4_86BE3EF
	.byte VOICE, 0x06
	.byte N12
	.byte Gn3
	.byte v060
	.byte W12
	.byte Cn3
	.byte W12
	.byte Gn3
	.byte W12
	.byte Cn4
	.byte W12
	.byte PAN, 0x10
	.byte N12
	.byte Gn4
	.byte W12
	.byte Cn4
	.byte W12
	.byte Gn3
	.byte W12
	.byte Cn4
	.byte W12
	.byte PAN, 0x40
	.byte N12
	.byte Gn3
	.byte W12
	.byte Cn3
	.byte W12
	.byte Gn3
	.byte W12
	.byte Cn4
	.byte W12
	.byte PAN, 0x70
	.byte N12
	.byte Gn4
	.byte W12
	.byte Cn4
	.byte W12
	.byte Gn3
	.byte W12
	.byte Cn4
	.byte W12
	.byte VOICE, 0x07
	.byte PAN, 0x40
	.byte N12
	.byte Gn3
	.byte W12
	.byte Cn3
	.byte W12
	.byte Gn3
	.byte W12
	.byte Cn4
	.byte W12
	.byte PAN, 0x10
	.byte N12
	.byte En4
	.byte W12
	.byte Cn4
	.byte W12
	.byte Gn3
	.byte W12
	.byte Cn4
	.byte W12
mus_battle32_4_86BE451: @ 86BE451
	.byte PAN, 0x40
	.byte N12
	.byte Gn3
	.byte v060
	.byte W12
	.byte Cn3
	.byte W12
	.byte Gn3
	.byte W12
	.byte Cn4
	.byte W12
	.byte PAN, 0x70
	.byte N12
	.byte En4
	.byte W12
	.byte Cn4
	.byte W12
	.byte Gn3
	.byte W12
	.byte Cn4
	.byte W12
	.byte PEND
	.byte VOICE, 0x06
	.byte PAN, 0x40
	.byte N12
	.byte Gs3
	.byte W12
	.byte Cs3
	.byte W12
	.byte Gs3
	.byte W12
	.byte Cs4
	.byte W12
	.byte PAN, 0x10
	.byte N12
	.byte Gs4
	.byte W12
	.byte Cs4
	.byte W12
	.byte Gs3
	.byte W12
	.byte Cs4
	.byte W12
	.byte PAN, 0x40
	.byte N12
	.byte Gs3
	.byte W12
	.byte Cs3
	.byte W12
	.byte Gs3
	.byte W12
	.byte Cs4
	.byte W12
	.byte PAN, 0x70
	.byte N12
	.byte Gs4
	.byte W12
	.byte Cs4
	.byte W12
	.byte Gs3
	.byte W12
	.byte Cs4
	.byte W12
	.byte VOICE, 0x07
	.byte PAN, 0x40
	.byte N12
	.byte Gn3
	.byte W12
	.byte Cn3
	.byte W12
	.byte Gn3
	.byte W12
	.byte Cn4
	.byte W12
	.byte PAN, 0x11
	.byte N12
	.byte En4
	.byte W12
	.byte Cn4
	.byte W12
	.byte Gn3
	.byte W12
	.byte Cn4
	.byte W12
	.byte PATT
	.word mus_battle32_4_86BE451
	.byte GOTO
	.word mus_battle32_4_86BE23E
	.byte FINE

mus_battle32_5: @ 86BE4BA
	.byte KEYSH, 0x00
	.byte VOICE, 0x52
	.byte LFOS, 0x12
	.byte XCMD, 0x08
	.byte AsM2
	.byte v009
	.byte GsM2
	.byte VOL, 0x50
	.byte PAN, 0x6E
	.byte BEND, 0x3E
	.byte N06
	.byte Gn3
	.byte v052
	.byte W06
	.byte Cn4
	.byte W06
	.byte Gn4
	.byte W12
	.byte Gn3
	.byte W06
	.byte Cn4
	.byte W06
	.byte Gn4
	.byte W12
	.byte Gn3
	.byte W06
	.byte Cn4
	.byte W06
	.byte Gn4
	.byte W12
	.byte Gn3
	.byte W06
	.byte Cn4
	.byte W06
	.byte Gn4
	.byte W12
	.byte Fn3
	.byte W06
	.byte As3
	.byte W06
	.byte Fn4
	.byte W12
	.byte Fn3
	.byte W06
	.byte As3
	.byte W06
	.byte Fn4
	.byte W12
	.byte Fn3
	.byte W06
	.byte As3
	.byte W06
	.byte Fn4
	.byte W12
	.byte As3
	.byte W06
	.byte Fn4
	.byte W12
	.byte Fs4
	.byte W06
	.byte VOICE, 0x50
	.byte PAN, 0x11
	.byte N48
	.byte Cn4
	.byte W24
	.byte MOD, 0x06
	.byte W24
	.byte CnM2
	.byte N48
	.byte Cn3
	.byte W24
	.byte MOD, 0x06
	.byte W24
	.byte CnM2
	.byte N48
	.byte Gn3
	.byte W24
	.byte MOD, 0x06
	.byte W24
	.byte CnM2
	.byte N48
	.byte Cs3
	.byte W24
	.byte MOD, 0x06
	.byte W24
	.byte CnM2
	.byte W06
	.byte N42
	.byte Cn4
	.byte W18
	.byte MOD, 0x06
	.byte W24
	.byte CnM2
	.byte N48
	.byte Gn4
	.byte W24
	.byte MOD, 0x06
	.byte W24
	.byte CnM2
	.byte N48
	.byte Cn5
	.byte W24
	.byte MOD, 0x06
	.byte W24
	.byte CnM2
	.byte N48
	.byte Cs4
	.byte W24
	.byte MOD, 0x06
	.byte W24
	.byte VOICE, 0x05
	.byte PAN, 0x70
	.byte MOD, 0x00
	.byte N12
	.byte Gn3
	.byte v040
	.byte W36
	.byte Gs3
	.byte W36
	.byte Gn2
	.byte W24
	.byte En3
	.byte W36
	.byte Fn3
	.byte W36
	.byte Gn2
	.byte W24
	.byte Gn3
	.byte W36
	.byte Gs3
	.byte W36
	.byte N24
	.byte Gn3
	.byte W24
	.byte N12
	.byte W36
	.byte Gs3
	.byte W36
	.byte N24
	.byte Ds3
	.byte W24
mus_battle32_5_86BE55B: @ 86BE55B
	.byte W96
	.byte W96
	.byte W96
	.byte W36
	.byte VOICE, 0x52
	.byte PAN, 0x40
	.byte N12
	.byte En3
	.byte v060
	.byte W12
	.byte VOICE, 0x53
	.byte N12
	.byte W12
	.byte N12
	.byte W12
	.byte N12
	.byte W12
	.byte N12
	.byte W12
	.byte W96
	.byte W96
	.byte W96
	.byte W96
	.byte W96
	.byte W96
	.byte W96
	.byte W96
	.byte W96
	.byte W96
	.byte W96
	.byte W36
	.byte VOICE, 0x52
	.byte N12
	.byte W12
	.byte VOICE, 0x53
	.byte N12
	.byte W12
	.byte N12
	.byte W12
	.byte N12
	.byte W12
	.byte N12
	.byte W12
	.byte W96
	.byte W96
	.byte W96
	.byte W96
	.byte W96
	.byte W96
	.byte W96
	.byte W96
	.byte W96
	.byte W96
	.byte W96
	.byte W96
	.byte W96
	.byte W96
	.byte W96
	.byte W96
	.byte W96
	.byte W96
	.byte W96
	.byte W96
	.byte W96
	.byte W96
	.byte W96
	.byte W96
	.byte VOICE, 0x50
	.byte BEND, 0x3E
	.byte N09
	.byte As3
	.byte v072
	.byte W12
	.byte N09
	.byte W12
	.byte N32
	.byte W36
	.byte N09
	.byte W12
	.byte N09
	.byte W12
	.byte N09
	.byte W12
	.byte Fn3
	.byte W12
	.byte N09
	.byte W12
	.byte N32
	.byte W36
	.byte N09
	.byte W12
	.byte N09
	.byte W12
	.byte N09
	.byte W12
	.byte Ds3
	.byte W12
	.byte N09
	.byte W12
	.byte N32
	.byte W36
	.byte N09
	.byte W12
	.byte N09
	.byte W12
	.byte N09
	.byte W12
	.byte Dn3
	.byte W12
	.byte N09
	.byte W12
	.byte N32
	.byte W36
	.byte N09
	.byte W12
	.byte N09
	.byte W12
	.byte N09
	.byte W12
	.byte VOICE, 0x05
	.byte N09
	.byte Cn2
	.byte v060
	.byte W12
	.byte N09
	.byte W12
	.byte N32
	.byte W36
	.byte N09
	.byte W12
	.byte N09
	.byte W12
	.byte N09
	.byte W12
	.byte N09
	.byte W12
	.byte N09
	.byte W12
	.byte N32
	.byte W36
	.byte N09
	.byte W12
	.byte N09
	.byte W12
	.byte N09
	.byte W12
mus_battle32_5_86BE5F5: @ 86BE5F5
	.byte VOICE, 0x04
	.byte N09
	.byte Cn4
	.byte v060
	.byte W12
	.byte N09
	.byte W12
	.byte N32
	.byte W36
	.byte N09
	.byte W12
	.byte N09
	.byte W12
	.byte N09
	.byte W12
	.byte PEND
mus_battle32_5_86BE606: @ 86BE606
	.byte N09
	.byte Cn4
	.byte v060
	.byte W12
	.byte N09
	.byte W12
	.byte N32
	.byte W36
	.byte N09
	.byte W12
	.byte N09
	.byte W12
	.byte N09
	.byte W12
	.byte PEND
	.byte VOICE, 0x05
	.byte N09
	.byte Cs2
	.byte W12
	.byte N09
	.byte W12
	.byte N32
	.byte W36
	.byte N09
	.byte W12
	.byte N09
	.byte W12
	.byte N09
	.byte W12
	.byte N09
	.byte W12
	.byte N09
	.byte W12
	.byte N32
	.byte W36
	.byte N09
	.byte W12
	.byte N09
	.byte W12
	.byte N09
	.byte W12
	.byte PATT
	.word mus_battle32_5_86BE5F5
	.byte PATT
	.word mus_battle32_5_86BE606
	.byte GOTO
	.word mus_battle32_5_86BE55B
	.byte FINE

mus_battle32_6: @ 86BE640
	.byte KEYSH, 0x00
	.byte VOICE, 0x5A
	.byte VOL, 0x50
	.byte W24
	.byte N06
	.byte Gn2
	.byte v080
	.byte W06
	.byte Gs2
	.byte W06
	.byte An2
	.byte W06
	.byte As2
	.byte W06
	.byte Bn2
	.byte W06
	.byte Cn3
	.byte W06
	.byte Cs3
	.byte W06
	.byte Dn3
	.byte W06
	.byte Cn2
	.byte W06
	.byte Cs2
	.byte W06
	.byte Dn2
	.byte W06
	.byte Ds2
	.byte W06
	.byte En2
	.byte W06
	.byte Fn2
	.byte W06
	.byte Fs2
	.byte W06
	.byte Gn2
	.byte W06
	.byte Gs2
	.byte W06
	.byte An2
	.byte W06
	.byte As2
	.byte W06
	.byte Bn2
	.byte W06
	.byte Cn3
	.byte W06
	.byte Cs3
	.byte W06
	.byte Dn3
	.byte W06
	.byte Ds3
	.byte W06
	.byte En3
	.byte W06
	.byte Fn3
	.byte W06
	.byte Fs3
	.byte W06
	.byte Gn3
	.byte W06
	.byte W96
	.byte W96
	.byte W96
	.byte W96
	.byte VOICE, 0x51
	.byte N48
	.byte Cn3
	.byte v064
	.byte W48
	.byte Cn2
	.byte W48
	.byte Gn2
	.byte W48
	.byte Cs2
	.byte W48
	.byte Cn3
	.byte W48
	.byte Cn2
	.byte W48
	.byte Cs3
	.byte W48
	.byte Ds2
	.byte W48
mus_battle32_6_86BE699: @ 86BE699
	.byte W96
	.byte W96
	.byte W96
	.byte W96
	.byte W96
	.byte W96
	.byte W96
	.byte W96
mus_battle32_6_86BE6A1: @ 86BE6A1
	.byte N48
	.byte Fn4
	.byte v064
	.byte W48
	.byte En4
	.byte W48
	.byte PEND
mus_battle32_6_86BE6A8: @ 86BE6A8
	.byte N24
	.byte Fn4
	.byte v064
	.byte W24
	.byte En4
	.byte W24
	.byte An4
	.byte W24
	.byte Dn5
	.byte W24
	.byte PEND
	.byte N72
	.byte Cn5
	.byte W72
	.byte N24
	.byte An4
	.byte W24
	.byte N96
	.byte Gn4
	.byte W96
	.byte W96
	.byte W96
	.byte W96
	.byte W96
	.byte W96
	.byte W96
	.byte W96
	.byte W60
	.byte N12
	.byte Cn4
	.byte W12
	.byte Gn4
	.byte W24
	.byte PATT
	.word mus_battle32_6_86BE6A1
	.byte PATT
	.word mus_battle32_6_86BE6A8
	.byte N72
	.byte Cn5
	.byte v064
	.byte W72
	.byte N24
	.byte En4
	.byte W24
	.byte N92
	.byte Cn5
	.byte W96
	.byte W96
	.byte W96
	.byte W96
	.byte N72
	.byte Cn1
	.byte W72
	.byte N12
	.byte W12
	.byte As0
	.byte W12
	.byte N96
	.byte Cs1
	.byte W96
	.byte Ds1
	.byte W96
	.byte TIE
	.byte Cn1
	.byte W96
	.byte W72
	.byte EOT
	.byte N12
	.byte W12
	.byte As0
	.byte W12
	.byte N96
	.byte Cs1
	.byte W96
	.byte Ds1
	.byte W96
	.byte Cn1
	.byte W96
	.byte N72
	.byte Gn2
	.byte W72
	.byte N12
	.byte W12
	.byte Fn2
	.byte W12
	.byte N96
	.byte Gs2
	.byte W96
	.byte As2
	.byte W96
	.byte TIE
	.byte Fn3
	.byte W96
	.byte W96
	.byte W96
	.byte W96
	.byte W96
	.byte W96
	.byte EOT
	.byte W96
	.byte W96
	.byte W96
	.byte W96
	.byte W96
	.byte W96
	.byte W96
	.byte W96
	.byte GOTO
	.word mus_battle32_6_86BE699
	.byte FINE

mus_battle32_7: @ 86BE71F
	.byte KEYSH, 0x00
	.byte VOICE, 0x00
	.byte VOL, 0x50
	.byte PAN, 0x40
	.byte W96
	.byte W84
	.byte N12
	.byte Dn1
	.byte v112
	.byte W12
mus_battle32_7_86BE72D: @ 86BE72D
	.byte W24
	.byte N12
	.byte Dn1
	.byte v112
	.byte W48
	.byte N12
	.byte W24
	.byte PEND
	.byte PATT
	.word mus_battle32_7_86BE72D
	.byte PATT
	.word mus_battle32_7_86BE72D
	.byte PATT
	.word mus_battle32_7_86BE72D
	.byte PATT
	.word mus_battle32_7_86BE72D
	.byte PATT
	.word mus_battle32_7_86BE72D
	.byte PATT
	.word mus_battle32_7_86BE72D
mus_battle32_7_86BE753: @ 86BE753
	.byte W24
	.byte N12
	.byte Dn1
	.byte v112
	.byte W48
	.byte N12
	.byte W12
	.byte N12
	.byte W12
	.byte PEND
mus_battle32_7_86BE75D: @ 86BE75D
	.byte PATT
	.word mus_battle32_7_86BE72D
	.byte PATT
	.word mus_battle32_7_86BE72D
	.byte PATT
	.word mus_battle32_7_86BE72D
	.byte PATT
	.word mus_battle32_7_86BE72D
	.byte PATT
	.word mus_battle32_7_86BE72D
	.byte PATT
	.word mus_battle32_7_86BE72D
	.byte PATT
	.word mus_battle32_7_86BE72D
	.byte PATT
	.word mus_battle32_7_86BE72D
	.byte PATT
	.word mus_battle32_7_86BE72D
	.byte PATT
	.word mus_battle32_7_86BE72D
	.byte PATT
	.word mus_battle32_7_86BE72D
	.byte PATT
	.word mus_battle32_7_86BE753
	.byte PATT
	.word mus_battle32_7_86BE72D
	.byte PATT
	.word mus_battle32_7_86BE72D
	.byte PATT
	.word mus_battle32_7_86BE72D
	.byte PATT
	.word mus_battle32_7_86BE72D
	.byte PATT
	.word mus_battle32_7_86BE72D
	.byte PATT
	.word mus_battle32_7_86BE72D
	.byte PATT
	.word mus_battle32_7_86BE72D
	.byte PATT
	.word mus_battle32_7_86BE72D
	.byte PATT
	.word mus_battle32_7_86BE72D
	.byte PATT
	.word mus_battle32_7_86BE72D
	.byte PATT
	.word mus_battle32_7_86BE72D
	.byte PATT
	.word mus_battle32_7_86BE753
	.byte PATT
	.word mus_battle32_7_86BE72D
	.byte PATT
	.word mus_battle32_7_86BE72D
	.byte PATT
	.word mus_battle32_7_86BE72D
	.byte PATT
	.word mus_battle32_7_86BE72D
	.byte PATT
	.word mus_battle32_7_86BE72D
	.byte PATT
	.word mus_battle32_7_86BE72D
	.byte PATT
	.word mus_battle32_7_86BE72D
	.byte PATT
	.word mus_battle32_7_86BE72D
	.byte PATT
	.word mus_battle32_7_86BE72D
	.byte PATT
	.word mus_battle32_7_86BE72D
	.byte PATT
	.word mus_battle32_7_86BE72D
	.byte PATT
	.word mus_battle32_7_86BE72D
	.byte PATT
	.word mus_battle32_7_86BE72D
	.byte PATT
	.word mus_battle32_7_86BE72D
	.byte PATT
	.word mus_battle32_7_86BE72D
	.byte PATT
	.word mus_battle32_7_86BE72D
	.byte PATT
	.word mus_battle32_7_86BE72D
	.byte PATT
	.word mus_battle32_7_86BE72D
	.byte PATT
	.word mus_battle32_7_86BE72D
	.byte PATT
	.word mus_battle32_7_86BE72D
	.byte PATT
	.word mus_battle32_7_86BE72D
	.byte PATT
	.word mus_battle32_7_86BE72D
	.byte PATT
	.word mus_battle32_7_86BE72D
	.byte PATT
	.word mus_battle32_7_86BE72D
	.byte PATT
	.word mus_battle32_7_86BE72D
	.byte PATT
	.word mus_battle32_7_86BE72D
	.byte PATT
	.word mus_battle32_7_86BE72D
	.byte PATT
	.word mus_battle32_7_86BE753
	.byte GOTO
	.word mus_battle32_7_86BE75D
	.byte FINE

mus_battle32_8: @ 86BE867
	.byte KEYSH, 0x00
	.byte VOICE, 0x2F
	.byte VOL, 0x50
	.byte PAN, 0x36
	.byte N12
	.byte Cn2
	.byte v112
	.byte W36
	.byte N12
	.byte W48
	.byte Gn1
	.byte W12
	.byte W12
	.byte Cn2
	.byte W36
	.byte N12
	.byte W24
	.byte Gn1
	.byte W24
mus_battle32_8_86BE87E: @ 86BE87E
	.byte N12
	.byte Cn2
	.byte v112
	.byte W36
	.byte N12
	.byte W60
	.byte PEND
	.byte PATT
	.word mus_battle32_8_86BE87E
	.byte PATT
	.word mus_battle32_8_86BE87E
	.byte PATT
	.word mus_battle32_8_86BE87E
	.byte PATT
	.word mus_battle32_8_86BE87E
	.byte PATT
	.word mus_battle32_8_86BE87E
	.byte PATT
	.word mus_battle32_8_86BE87E
	.byte PATT
	.word mus_battle32_8_86BE87E
mus_battle32_8_86BE8A8: @ 86BE8A8
	.byte N12
	.byte Cn2
	.byte v112
	.byte W36
	.byte N12
	.byte W48
	.byte Gn1
	.byte W12
	.byte PEND
	.byte PATT
	.word mus_battle32_8_86BE8A8
	.byte PATT
	.word mus_battle32_8_86BE8A8
	.byte PATT
	.word mus_battle32_8_86BE8A8
	.byte PATT
	.word mus_battle32_8_86BE8A8
	.byte PATT
	.word mus_battle32_8_86BE8A8
	.byte PATT
	.word mus_battle32_8_86BE8A8
	.byte PATT
	.word mus_battle32_8_86BE8A8
	.byte PATT
	.word mus_battle32_8_86BE8A8
	.byte PATT
	.word mus_battle32_8_86BE8A8
	.byte PATT
	.word mus_battle32_8_86BE8A8
	.byte PATT
	.word mus_battle32_8_86BE87E
	.byte PATT
	.word mus_battle32_8_86BE8A8
	.byte PATT
	.word mus_battle32_8_86BE8A8
	.byte PATT
	.word mus_battle32_8_86BE8A8
	.byte PATT
	.word mus_battle32_8_86BE8A8
	.byte PATT
	.word mus_battle32_8_86BE8A8
	.byte PATT
	.word mus_battle32_8_86BE8A8
	.byte PATT
	.word mus_battle32_8_86BE8A8
	.byte PATT
	.word mus_battle32_8_86BE8A8
	.byte PATT
	.word mus_battle32_8_86BE8A8
	.byte PATT
	.word mus_battle32_8_86BE8A8
	.byte PATT
	.word mus_battle32_8_86BE8A8
	.byte PATT
	.word mus_battle32_8_86BE87E
	.byte PATT
	.word mus_battle32_8_86BE8A8
	.byte PATT
	.word mus_battle32_8_86BE87E
	.byte PATT
	.word mus_battle32_8_86BE8A8
	.byte PATT
	.word mus_battle32_8_86BE8A8
	.byte PATT
	.word mus_battle32_8_86BE8A8
	.byte PATT
	.word mus_battle32_8_86BE8A8
	.byte PATT
	.word mus_battle32_8_86BE8A8
	.byte PATT
	.word mus_battle32_8_86BE8A8
	.byte PATT
	.word mus_battle32_8_86BE8A8
	.byte PATT
	.word mus_battle32_8_86BE8A8
	.byte PATT
	.word mus_battle32_8_86BE8A8
	.byte PATT
	.word mus_battle32_8_86BE8A8
	.byte PATT
	.word mus_battle32_8_86BE8A8
	.byte PATT
	.word mus_battle32_8_86BE8A8
	.byte PATT
	.word mus_battle32_8_86BE8A8
	.byte PATT
	.word mus_battle32_8_86BE8A8
	.byte PATT
	.word mus_battle32_8_86BE8A8
	.byte PATT
	.word mus_battle32_8_86BE8A8
	.byte PATT
	.word mus_battle32_8_86BE8A8
	.byte PATT
	.word mus_battle32_8_86BE8A8
mus_battle32_8_86BE988: @ 86BE988
	.byte N12
	.byte Cn2
	.byte v112
	.byte W48
	.byte N12
	.byte W12
	.byte N12
	.byte W24
	.byte N12
	.byte W12
	.byte PEND
	.byte PATT
	.word mus_battle32_8_86BE988
	.byte PATT
	.word mus_battle32_8_86BE988
	.byte PATT
	.word mus_battle32_8_86BE988
	.byte PATT
	.word mus_battle32_8_86BE988
	.byte PATT
	.word mus_battle32_8_86BE988
	.byte W24
	.byte N12
	.byte Cn2
	.byte v112
	.byte W24
	.byte N12
	.byte W12
	.byte N12
	.byte W24
	.byte N12
	.byte W12
	.byte N12
	.byte W48
	.byte N12
	.byte W12
	.byte N12
	.byte W36
	.byte GOTO
	.word mus_battle32_8_86BE8A8
	.byte FINE

@ ***************************************
	.align 2
mus_battle32: @ 86BE9C4
	.byte 8
	.byte 0
	.byte mus_battle32_pri
	.byte mus_battle32_rev
	.word mus_battle32_grp

	.word mus_battle32_1
	.word mus_battle32_2
	.word mus_battle32_3
	.word mus_battle32_4
	.word mus_battle32_5
	.word mus_battle32_6
	.word mus_battle32_7
	.word mus_battle32_8
